<svg width="12" height="15" xmlns="http://www.w3.org/2000/svg">
  <path d="M7.93 3.22H2.01A1 1 0 0 0 1 4.23v8.49a1 1 0 0 0 1 1h5.93a1 1 0 0 0 1.01-1V4.23a1 1 0 0 0-1-1zm.3 9.5a.3.3 0 0 1-.3.3H2a.3.3 0 0 1-.3-.3v-8.5c0-.17.14-.3.3-.3h5.93c.17 0 .3.13.3.3v8.48zM10.2 1a1 1 0 0 1 1 1v8.5a1 1 0 0 1-1 1 .35.35 0 0 1-.35-.35c0-.2.15-.36.35-.36a.3.3 0 0 0 .3-.3V2.01a.3.3 0 0 0-.3-.3H4.27a.3.3 0 0 0-.3.3c0 .2-.16.35-.35.35A.35.35 0 0 1 3.27 2a1 1 0 0 1 1-1.01h5.93z" stroke="#595959" stroke-width=".64" fill="#595959" fill-rule="evenodd"/>
</svg>
