<svg xmlns="http://www.w3.org/2000/svg" width="32" height="32" viewBox="0 0 32 32">
    <path fill="#424A51" fill-rule="evenodd" d="M16 0c8.837 0 16 7.163 16 16s-7.163 16-16 16S0 24.837 0 16 7.163 0 16 0zm-4.114 11.585c-.284-.284-.745-.284-1.029 0-.284.284-.284.744 0 1.028l4.114 4.114-4.114 4.114c-.258.259-.281.663-.07.947l.07.082c.284.284.745.284 1.029 0L16 17.755l4.114 4.115c.258.258.662.282.947.07l.082-.07c.284-.284.284-.745 0-1.029l-4.115-4.114 4.115-4.114c.258-.258.281-.662.07-.947l-.07-.081c-.284-.284-.745-.284-1.029 0L16 15.699z"/>
</svg>
