<svg width="20" height="24" xmlns="http://www.w3.org/2000/svg">
  <path d="M11.3 5.2C18.2 8.1 28.3 25.4 8 24-6.5 23 2 8.3 7.8 5.4 5.8 4 4.6 1 5.3.3c1-1 2.5.8 4 .6 1-.1 3.3-1 4.3-.8.7.1-.5 3.6-2.3 5.1zm.3 10.8l.2.3-.1.7c-.2.4-.8.6-1.2.6v-2.1l.8.2.3.3zm-3.2-3.5c.2-.3.6-.4 1-.5v2a4.7 4.7 0 0 1-.9-.4.7.7 0 0 1-.2-.3.9.9 0 0 1 0-.8zm4.6 4.2a2.1 2.1 0 0 0-.2-1.2c-.1-.2 0-.1 0 0-.3-.5-.8-.8-1.3-1l-1-.3V12c.3 0 .6.1.8.3a1.1 1.1 0 0 1 .4.5v.2c.1.2.4.3.6.3.2 0 .4 0 .5-.3l.1-.3v-.2a2.2 2.2 0 0 0-.6-1 3 3 0 0 0-1.8-.7V10a.6.6 0 0 0-1-.4l-.2.4v.7a3 3 0 0 0-1.6.7A2 2 0 0 0 7 13l.2.9.6.6c.4.3 1 .5 1.5.6v2.4c-.3 0-.5-.2-.7-.4a1.5 1.5 0 0 1-.4-.6v-.2c-.1-.2-.3-.3-.6-.4-.2 0-.4.1-.5.4l-.1.3v.2a2.7 2.7 0 0 0 .6 1 3 3 0 0 0 1.7.9v.7a.6.6 0 0 0 1 .4l.2-.4v-.6c.6 0 1.2-.3 1.7-.6.4-.4.7-.9.8-1.5zm-1.3.3z" fill="#FEFEFF" fill-rule="evenodd"/>
</svg>
