<svg xmlns="http://www.w3.org/2000/svg" width="18" height="18">
  <path fill="#818A91" d="M16.48 10.54c.9.52 1.52 1.48 1.52 2.6 0 1.65-1.35 3-3 3s-3-1.35-3-3c0-1.66 1.35-3 3-3 0-1.84-.8-3.54-2.23-4.7-.32-.25-.37-.72-.1-1.05.25-.35.72-.4 1.04-.14 1.8 1.44 2.8 3.57 2.8 5.85v.4zM2.25 9.36c-.4-.1-.66-.5-.56-.9.5-2.32 2.13-4.26 4.3-5.2.05-1.6 1.36-2.9 3-2.9 1.63 0 3 1.35 3 3 0 1.66-1.37 3-3 3-1.18 0-2.17-.66-2.67-1.62-1.6.8-2.8 2.3-3.2 4.05-.08.32-.4.56-.73.56-.05 0-.1 0-.16-.02zM11 15.8c.4-.14.82.06.96.45.14.4-.07.82-.46.96-.8.3-1.64.46-2.5.46-1.77 0-3.46-.62-4.8-1.75-.37.16-.78.25-1.2.25-1.65 0-3-1.35-3-3 0-1.66 1.35-3 3-3s3 1.34 3 3c0 .67-.23 1.28-.6 1.78 1.03.8 2.28 1.22 3.6 1.22.7 0 1.36-.12 2-.34z"/>
</svg>
