<svg xmlns="http://www.w3.org/2000/svg" width="16" height="18">
  <path fill="#818A91" d="M13.48 11.3c3.3 1.25 2.3 4.77 2.3 4.8-.1.57-.16.77-.22.8-3.3 1.47-11.47 1.47-14.77 0-.08-.03-.14-.23-.24-.8 0-.03-1-3.57 2.3-4.8C5.1 10.55 6 9.63 6 9.63l.07.07c.65.64 1.38 1 2.05 1h.06c.67 0 1.4-.36 2.06-1l.08-.06s.92.92 3.14 1.65zm-1.86-6.44c.13.1.1.6-.04 1.05-.12.5-.3.6-.32.74-.4 1.86-1.68 3.44-3.07 3.44-1.4 0-2.78-1.58-3.17-3.44-.04-.1-.2-.24-.32-.7-.13-.47-.16-.92-.04-1.06l.03-.03.17-.17s-.32-1.64-.06-2.4C5.25.93 6.76.23 7.05.12c.44-.2.82-.1.82-.1l.32.05c.48.1 2.9.92 3.3 2.17.27.77-.06 2.4-.06 2.4l.17.18v.03z"/>
</svg>
