<?xml version="1.0" encoding="UTF-8" standalone="no"?>
<svg
   xmlns:dc="http://purl.org/dc/elements/1.1/"
   xmlns:cc="http://creativecommons.org/ns#"
   xmlns:rdf="http://www.w3.org/1999/02/22-rdf-syntax-ns#"
   xmlns:svg="http://www.w3.org/2000/svg"
   xmlns="http://www.w3.org/2000/svg"
   xmlns:sodipodi="http://sodipodi.sourceforge.net/DTD/sodipodi-0.dtd"
   xmlns:inkscape="http://www.inkscape.org/namespaces/inkscape"
   inkscape:version="1.0 (4035a4f, 2020-05-01)"
   sodipodi:docname="shop-blue.svg"
   id="svg1189"
   version="1.1"
   viewBox="0 0 40 40"
   height="40"
   width="40">
  <metadata
     id="metadata1195">
    <rdf:RDF>
      <cc:Work
         rdf:about="">
        <dc:format>image/svg+xml</dc:format>
        <dc:type
           rdf:resource="http://purl.org/dc/dcmitype/StillImage" />
      </cc:Work>
    </rdf:RDF>
  </metadata>
  <defs
     id="defs1193" />
  <sodipodi:namedview
     inkscape:current-layer="svg1189"
     inkscape:window-maximized="1"
     inkscape:window-y="23"
     inkscape:window-x="60"
     inkscape:cy="18.412698"
     inkscape:cx="12.361111"
     inkscape:zoom="25.2"
     showgrid="false"
     id="namedview1191"
     inkscape:window-height="1395"
     inkscape:window-width="2500"
     inkscape:pageshadow="2"
     inkscape:pageopacity="0"
     guidetolerance="10"
     gridtolerance="10"
     objecttolerance="10"
     borderopacity="1"
     bordercolor="#666666"
     pagecolor="#ffffff" />
  <path
     style="fill:#ffb950;fill-opacity:1"
     id="path1187"
     d="M10.91 32.727c2.007 0 3.635 1.628 3.635 3.637 0 2.008-1.628 3.636-3.636 3.636s-3.636-1.628-3.636-3.636c0-2.009 1.628-3.637 3.636-3.637zm21.817 0c2.009 0 3.637 1.628 3.637 3.637 0 2.008-1.628 3.636-3.637 3.636-2.008 0-3.636-1.628-3.636-3.636 0-2.009 1.628-3.637 3.636-3.637zM4.545 0c.8 0 1.507.523 1.74 1.289l.732 2.406c.084-.025.166-.059.256-.059h29.8C38.688 3.636 40 4.947 40 6.564v.258c0 .427-.096.857-.278 1.245l-6.344 13.48c-.6 1.275-1.882 2.09-3.291 2.09H12.47c-.055.094-.108.189-.18.274l-2.882 3.362h26.047c.502 0 .909.407.909.909V30c0 .502-.407.909-.91.909H9.409c-1.6 0-2.987-1.005-3.48-2.577-.387-1.23-.009-2.577.83-3.555l2.12-2.475-5.68-18.666H.91C.407 3.636 0 3.23 0 2.727V.91C0 .407.407 0 .91 0z"
     fill="#0086D6" />
</svg>
