<svg xmlns="http://www.w3.org/2000/svg" width="48" height="48" xmlns:xlink="http://www.w3.org/1999/xlink">
  <defs>
    <circle id="a" cx="24" cy="24" r="24"/>
  </defs>
  <g fill="none" fill-rule="evenodd">
    <use fill="#76C47D" xlink:href="#a"/>
    <circle cx="24" cy="24" r="23" stroke="#000" stroke-opacity=".07" stroke-width="2"/>
    <path fill="#FFF" d="M34.52 17.68l-1.92-2c-.26-.27-.58-.4-.96-.4-.37 0-.7.13-.95.4l-9.27 9.66L17.3 21c-.25-.27-.57-.4-.94-.4-.38 0-.7.13-.96.4l-1.92 2c-.26.28-.4.6-.4 1s.14.73.4 1l7.02 7.32c.26.27.58.4.95.4.38 0 .7-.13.96-.4l12.14-12.64c.26-.27.4-.6.4-1s-.14-.72-.4-1z"/>
  </g>
</svg>
