<svg width="140" height="140" fill="none" xmlns="http://www.w3.org/2000/svg"><path opacity=".48" d="M127.556 80.471v28.947c-.001 3.148-.901 6.216-2.573 8.769-1.671 2.553-4.03 4.461-6.741 5.455-5.075-1.778-11.122-6.555-12.075-12.446a17.292 17.292 0 0 1-.233-2.849v-32.16h17.733c1.031 0 2.02.452 2.75 1.255.729.804 1.139 1.893 1.139 3.03Z" fill="#3C6"/><path fill-rule="evenodd" clip-rule="evenodd" d="m107.985 111.212-.232-1.778V19.842a4.645 4.645 0 0 0-.521-2.14 4.098 4.098 0 0 0-1.418-1.567 3.59 3.59 0 0 0-1.936-.573 3.59 3.59 0 0 0-1.935.574L85.878 32.708a2 2 0 0 1-2.8.07L65.146 16.05a3.573 3.573 0 0 0-1.936-.493 3.578 3.578 0 0 0-1.937.514l-17.934 16.71a2 2 0 0 1-2.797-.07L24.477 16.179a3.592 3.592 0 0 0-1.937-.574c-.68 0-1.348.198-1.937.574a4.1 4.1 0 0 0-1.407 1.548 4.633 4.633 0 0 0-.53 2.115v89.592c0 3.977 1.429 7.791 3.971 10.603 2.543 2.812 5.99 4.392 9.586 4.392h79.403c.225.021.452.021.678 0h1.259c1.454-.002 3.131-.197 4.684-.787-2.511-.888-5.159-2.501-6.896-4.693-1.736-2.193-2.9-4.868-3.366-7.737Z" fill="#3C6"/><g filter="url(#a)"><path d="M40.94 57.626a6.187 6.187 0 0 1 6.186-6.187h32.172a6.187 6.187 0 0 1 6.187 6.187V70a6.187 6.187 0 0 1-6.187 6.187H47.126A6.187 6.187 0 0 1 40.94 70V57.626Z" fill="#26A65D"/></g><g filter="url(#b)"><rect x="40.939" y="83.611" width="39.596" height="6.187" rx="3.093" fill="#26A65D"/></g><g filter="url(#c)"><rect x="40.939" y="94.747" width="19.798" height="6.187" rx="3.093" fill="#26A65D"/></g><g filter="url(#d)" fill="#CEFFDF"><path d="M52.38 68.67h-1.883v-3.63h-3.37v-1.71h3.37v-3.647h1.884v3.646h3.387v1.711H52.38v3.63ZM62.396 70h-2.42v-9.747l-2.54 2.523V60.46l2.834-2.834h2.126V70ZM69.295 67.442v-1.59h1.4v-1.02h-1.4v-1.59h1.4v-5.616h3.387c.841 0 1.585.133 2.23.398.645.253 1.152.65 1.52 1.192.37.53.553 1.216.553 2.057 0 .852-.19 1.544-.57 2.073-.38.519-.898.9-1.555 1.141-.657.23-1.4.346-2.23.346h-.933v1.02h3.405v1.59h-3.405V70h-2.402v-2.558h-1.4Zm4.753-4.2c.599 0 1.071-.155 1.417-.466.346-.322.518-.812.518-1.469 0-.645-.16-1.1-.484-1.365-.322-.265-.794-.397-1.417-.397h-.985v3.698h.95Z"/></g><defs><filter id="a" x="20.939" y="31.439" width="84.546" height="64.748" filterUnits="userSpaceOnUse" color-interpolation-filters="sRGB"><feFlood flood-opacity="0" result="BackgroundImageFix"/><feColorMatrix in="SourceAlpha" values="0 0 0 0 0 0 0 0 0 0 0 0 0 0 0 0 0 0 127 0" result="hardAlpha"/><feOffset dy="1"/><feComposite in2="hardAlpha" operator="out"/><feColorMatrix values="0 0 0 0 1 0 0 0 0 1 0 0 0 0 1 0 0 0 0.2 0"/><feBlend in2="BackgroundImageFix" result="effect1_dropShadow_1402_8702"/><feColorMatrix in="SourceAlpha" values="0 0 0 0 0 0 0 0 0 0 0 0 0 0 0 0 0 0 127 0" result="hardAlpha"/><feOffset/><feGaussianBlur stdDeviation="10"/><feComposite in2="hardAlpha" operator="out"/><feColorMatrix values="0 0 0 0 1 0 0 0 0 0.933333 0 0 0 0 0.180392 0 0 0 0.4 0"/><feBlend in2="effect1_dropShadow_1402_8702" result="effect2_dropShadow_1402_8702"/><feBlend in="SourceGraphic" in2="effect2_dropShadow_1402_8702" result="shape"/><feColorMatrix in="SourceAlpha" values="0 0 0 0 0 0 0 0 0 0 0 0 0 0 0 0 0 0 127 0" result="hardAlpha"/><feOffset dy="1"/><feComposite in2="hardAlpha" operator="arithmetic" k2="-1" k3="1"/><feColorMatrix values="0 0 0 0 0 0 0 0 0 0 0 0 0 0 0 0 0 0 0.1 0"/><feBlend in2="shape" result="effect3_innerShadow_1402_8702"/></filter><filter id="b" x="40.939" y="83.611" width="39.596" height="7.187" filterUnits="userSpaceOnUse" color-interpolation-filters="sRGB"><feFlood flood-opacity="0" result="BackgroundImageFix"/><feColorMatrix in="SourceAlpha" values="0 0 0 0 0 0 0 0 0 0 0 0 0 0 0 0 0 0 127 0" result="hardAlpha"/><feOffset dy="1"/><feComposite in2="hardAlpha" operator="out"/><feColorMatrix values="0 0 0 0 1 0 0 0 0 1 0 0 0 0 1 0 0 0 0.2 0"/><feBlend in2="BackgroundImageFix" result="effect1_dropShadow_1402_8702"/><feBlend in="SourceGraphic" in2="effect1_dropShadow_1402_8702" result="shape"/><feColorMatrix in="SourceAlpha" values="0 0 0 0 0 0 0 0 0 0 0 0 0 0 0 0 0 0 127 0" result="hardAlpha"/><feOffset dy="1"/><feComposite in2="hardAlpha" operator="arithmetic" k2="-1" k3="1"/><feColorMatrix values="0 0 0 0 0 0 0 0 0 0 0 0 0 0 0 0 0 0 0.1 0"/><feBlend in2="shape" result="effect2_innerShadow_1402_8702"/></filter><filter id="c" x="40.939" y="94.747" width="19.798" height="7.187" filterUnits="userSpaceOnUse" color-interpolation-filters="sRGB"><feFlood flood-opacity="0" result="BackgroundImageFix"/><feColorMatrix in="SourceAlpha" values="0 0 0 0 0 0 0 0 0 0 0 0 0 0 0 0 0 0 127 0" result="hardAlpha"/><feOffset dy="1"/><feComposite in2="hardAlpha" operator="out"/><feColorMatrix values="0 0 0 0 1 0 0 0 0 1 0 0 0 0 1 0 0 0 0.2 0"/><feBlend in2="BackgroundImageFix" result="effect1_dropShadow_1402_8702"/><feBlend in="SourceGraphic" in2="effect1_dropShadow_1402_8702" result="shape"/><feColorMatrix in="SourceAlpha" values="0 0 0 0 0 0 0 0 0 0 0 0 0 0 0 0 0 0 127 0" result="hardAlpha"/><feOffset dy="1"/><feComposite in2="hardAlpha" operator="arithmetic" k2="-1" k3="1"/><feColorMatrix values="0 0 0 0 0 0 0 0 0 0 0 0 0 0 0 0 0 0 0.1 0"/><feBlend in2="shape" result="effect2_innerShadow_1402_8702"/></filter><filter id="d" x="47.127" y="57.626" width="31.259" height="13.374" filterUnits="userSpaceOnUse" color-interpolation-filters="sRGB"><feFlood flood-opacity="0" result="BackgroundImageFix"/><feColorMatrix in="SourceAlpha" values="0 0 0 0 0 0 0 0 0 0 0 0 0 0 0 0 0 0 127 0" result="hardAlpha"/><feOffset dy="1"/><feComposite in2="hardAlpha" operator="out"/><feColorMatrix values="0 0 0 0 0 0 0 0 0 0 0 0 0 0 0 0 0 0 0.1 0"/><feBlend in2="BackgroundImageFix" result="effect1_dropShadow_1402_8702"/><feBlend in="SourceGraphic" in2="effect1_dropShadow_1402_8702" result="shape"/></filter></defs></svg>