<svg width="219" height="61" fill="none" xmlns="http://www.w3.org/2000/svg"><g clip-path="url(#a)"><path fill-rule="evenodd" clip-rule="evenodd" d="M146.637 37H56.085c5.32-7.495 12.942-14.901 22.43-21.292C104.717-1.94 135.257-5.215 146.73 8.42c6.062 7.204 5.578 17.69-.092 28.58Z" fill="url(#b)"/><path d="M32.651 49.877c-4.76-.931-7.207-8.736-5.466-17.434 1.742-8.697 6.332-11.587 11.092-10.659 4.76.928 7.888 5.332 6.146 14.03-1.741 8.697-7.012 14.992-11.772 14.063Z" fill="url(#c)"/><path d="M10.36 48.634c-3.87.844-8.293-4.204-9.875-11.28-1.582-7.075.89-10.722 4.76-11.56 3.87-.836 7.672 1.427 9.257 8.499 1.585 7.072-.27 13.493-4.143 14.34Z" fill="url(#d)"/><path d="M21.677 53.11c-5.519 0-9.995-11.142-9.995-21.23 0-10.089 4.476-14.317 9.995-14.317 5.52 0 9.999 4.228 9.999 14.316 0 10.089-4.476 21.231-9.999 21.231Z" fill="url(#e)"/><path d="M109.624 17.655c-7.397 4.226-9.938 13.573-5.676 20.878 4.262 7.305 13.713 9.8 21.11 5.575 7.396-4.225 9.937-13.573 5.675-20.877-4.262-7.305-13.713-9.801-21.109-5.576Z" fill="#F0F0F0"/><path d="M116.943 46.156a15.547 15.547 0 0 1-8.998-3.125 15.24 15.24 0 0 1-5.418-7.755c2.102-3.17 7.973-5.364 14.835-5.2 6.862.166 12.596 2.637 14.545 5.892a15.342 15.342 0 0 1-5.813 7.493 15.603 15.603 0 0 1-9.151 2.695Z" fill="#000"/><path d="M78.863 20.99c-6.04 5.976-6.049 15.655-.021 21.62 6.027 5.964 15.809 5.954 21.848-.022s6.049-15.655.021-21.62c-6.027-5.964-15.809-5.954-21.848.022Z" fill="#F0F0F0"/><path d="M93.009 46.731a15.583 15.583 0 0 1-9.488-.952c-2.98-1.3-5.466-3.5-7.102-6.286 1.29-3.57 6.482-7.058 13.19-8.49 6.71-1.432 12.887-.377 15.535 2.358a15.244 15.244 0 0 1-3.88 8.629 15.525 15.525 0 0 1-8.255 4.741Z" fill="#000"/><path d="M161.934 36.219c1.427-2.21 7.55-2.584 13.382-.706-.02-.302-.075-.663-.096-.965-1.165-13.404 1.46-27.972 6.005-28.4 3.619-.317 5.952 8.635 7.908 17.887 1.327-1.641 8.864 1.708 10.207 4.374 1.195-1.329 11.2-9.67 12.262 9.447.519 9.035-1.804 13.144-6.782 15.985-4.978 2.84-14.105 4.034-22.191.496-14.459-6.196-22.596-15.238-20.695-18.118Z" fill="url(#f)"/><path d="M188.749 32.35c-8.392-1.44-12.842 3.37-13.437 3.17-8.599-2.928-14.147-1.912-14.485 1.467-.338 3.38 14.381 16.03 24.648 18.49 16.002 3.769 15.009-21.135 3.274-23.127Z" fill="url(#g)"/><path d="M203.636 44.802c3.424.227 6.547-4.664 6.961-10.985.448-6.262-2.143-9.096-5.578-9.276-3.423-.228-6.359 2.24-6.807 8.502-.448 6.263 2.048 11.543 5.424 11.759Z" fill="url(#h)"/><path d="M194.255 45.17c3.837-.211 6.679-6.113 6.293-13.182-.386-7.068-3.644-9.823-7.481-9.612-3.837.211-6.804 3.363-6.452 10.373.385 7.068 3.803 12.633 7.64 12.421Z" fill="url(#i)"/></g><defs><linearGradient id="c" x1="46.498" y1="35.235" x2="29.989" y2="36.061" gradientUnits="userSpaceOnUse"><stop offset=".05" stop-color="#36AA4B"/><stop offset=".41" stop-color="#42CD5E"/><stop offset=".73" stop-color="#4AE66B"/><stop offset=".93" stop-color="#4DEF70"/></linearGradient><linearGradient id="d" x1="16.377" y1="36.723" x2="2.773" y2="37.411" gradientUnits="userSpaceOnUse"><stop offset=".05" stop-color="#36AA4B"/><stop offset=".41" stop-color="#42CD5E"/><stop offset=".73" stop-color="#4AE66B"/><stop offset=".93" stop-color="#4DEF70"/></linearGradient><linearGradient id="e" x1="33.412" y1="34.637" x2="15.35" y2="35.425" gradientUnits="userSpaceOnUse"><stop offset=".05" stop-color="#36AA4B"/><stop offset=".41" stop-color="#42CD5E"/><stop offset=".73" stop-color="#4AE66B"/><stop offset=".93" stop-color="#4DEF70"/></linearGradient><linearGradient id="f" x1="166.319" y1="24.34" x2="217.26" y2="43.989" gradientUnits="userSpaceOnUse"><stop offset=".068" stop-color="#4DF070"/><stop offset=".34" stop-color="#47DE67"/><stop offset=".881" stop-color="#38B14E"/><stop offset=".944" stop-color="#36AB4B"/></linearGradient><linearGradient id="g" x1="168.177" y1="25.88" x2="194.832" y2="57.738" gradientUnits="userSpaceOnUse"><stop offset=".149" stop-color="#4DF070"/><stop offset="1" stop-color="#36AB4B"/></linearGradient><linearGradient id="h" x1="212.414" y1="36.62" x2="197.523" y2="32.828" gradientUnits="userSpaceOnUse"><stop offset=".149" stop-color="#36AB4B"/><stop offset=".341" stop-color="#3AB751"/><stop offset=".682" stop-color="#44D562"/><stop offset=".932" stop-color="#4DF070"/></linearGradient><linearGradient id="i" x1="202.879" y1="34.856" x2="185.732" y2="32.646" gradientUnits="userSpaceOnUse"><stop offset=".048" stop-color="#36AB4B"/><stop offset=".407" stop-color="#3EC459"/><stop offset=".932" stop-color="#4DF070"/></linearGradient><radialGradient id="b" cx="0" cy="0" r="1" gradientUnits="userSpaceOnUse" gradientTransform="matrix(61.26933 -40.68398 25.96252 39.09909 90.82 30.148)"><stop offset=".068" stop-color="#4DF070"/><stop offset=".267" stop-color="#4AE76B"/><stop offset=".595" stop-color="#42CE5E"/><stop offset=".953" stop-color="#36AB4B"/></radialGradient><clipPath id="a"><path fill="#fff" d="M0 0h219v61H0z"/></clipPath></defs></svg>