<svg width="168" height="138" fill="none" xmlns="http://www.w3.org/2000/svg"><path d="M121.66 88.72a41 41 0 0 0-6.61-27.29A33.728 33.728 0 0 0 102.556 4.27 33.73 33.73 0 0 0 79.45 5.29a34.001 34.001 0 0 0-12.25 8.76 33.593 33.593 0 0 0-6.3 10.43 30.211 30.211 0 0 0-19.42 1.32 30.57 30.57 0 0 0-11 7.88 30.32 30.32 0 0 0 9.16 47.23 41.231 41.231 0 0 0 52.3 43 23.679 23.679 0 0 0 18.263 9.651 23.677 23.677 0 0 0 18.887-8.365 23.67 23.67 0 0 0-7.41-36.426l-.02-.05ZM42.93 128.669a6.64 6.64 0 1 1 6.64 6.64 6.62 6.62 0 0 1-6.138-4.097 6.628 6.628 0 0 1-.502-2.543ZM9.87 105.3a10.182 10.182 0 0 1 12.166-9.984 10.18 10.18 0 0 1-1.986 20.164 10.096 10.096 0 0 1-7.225-2.955A10.076 10.076 0 0 1 9.87 105.3Z" fill="#EEF2F7"/><path d="m13.89 78 5-1.72 4.46-1.52a3.45 3.45 0 0 1 4.23 1.49c2.47 3.85 4.92 7.7 7.39 11.55 3.3 5.173 6.607 10.343 9.92 15.509a2.814 2.814 0 0 1-.35 3.703c-.332.31-.733.536-1.17.657l-6.37 2.15c-.29.1-.21.21-.09.39l7 11c.2.33.42.64.63 1 .69 1.1 1.38 2.21 2.08 3.31a1372.34 1372.34 0 0 0 4.28 6.75c.35.56.35 1 0 1.37a1.005 1.005 0 0 1-.72.306 1.005 1.005 0 0 1-.72-.306l-3.82-3.36-17.12-15.03-9.75-8.57a1.477 1.477 0 0 1-.189-2.217c.196-.203.445-.346.719-.413l5.84-2a.727.727 0 0 0 .16-.07 7.626 7.626 0 0 1 1.48-.58l1.52-.52c.22-.07.25-.15.07-.33-1.24-1.25-2.47-2.55-3.72-3.77a1.269 1.269 0 0 1-.23-.34l-2.94-3c-1.77-1.81-3.56-3.61-5.33-5.42-1.5-1.52-3-3.06-4.5-4.57a3.13 3.13 0 0 1 .94-5c.41-.18.87-.32 1.3-.45Z" fill="#FEDA4C"/><path d="M92.86 109.86c26.659 0 48.27-21.61 48.27-48.27 0-26.659-21.611-48.27-48.27-48.27-26.659 0-48.27 21.611-48.27 48.27 0 26.66 21.611 48.27 48.27 48.27Z" fill="#F55"/><rect x="93.485" y="26" width="9" height="47" rx="4.5" transform="rotate(10.401 93.485 26)" fill="#FFDB4C"/><path d="M59.19 80.16a48.28 48.28 0 0 1 14.81-63c-1.49.64-3 1.36-4.42 2.16a48.27 48.27 0 1 0 46.65 84.52c1.447-.8 2.84-1.66 4.18-2.58a48.279 48.279 0 0 1-61.22-21.1Z" fill="#E03838"/><path d="m121.63 92.55-3.31 3.32-4.64 4.641 20.88 8.78a2.913 2.913 0 0 0 3.983-2.123 2.91 2.91 0 0 0-.173-1.687l-8.78-20.88-7.96 7.95Z" fill="#F55"/><path d="M88.59 80.89a5.632 5.632 0 0 0-4.39.19 5.7 5.7 0 0 0-2.38 7.33 5.5 5.5 0 0 0 3.54 2.71 5.591 5.591 0 0 0 4.47-.18 5.169 5.169 0 0 0 2.55-3.16 5.32 5.32 0 0 0-.28-4.17 5.642 5.642 0 0 0-3.51-2.72Z" fill="#FFDB4C"/><path d="M25.47 20.22c-2.82-1.074-6.09-.877-9.81.59a13.71 13.71 0 0 0-7.57 6.28 10.42 10.42 0 0 0-.66 8c.096.382.223.757.38 1.12a2.94 2.94 0 0 0 1.44 1.49 3.57 3.57 0 0 0 2.91-.08 3.61 3.61 0 0 0 2.19-1.93 3.11 3.11 0 0 0 .2-2.13 1.464 1.464 0 0 0-.11-.3 5 5 0 0 1 .13-3.91 5.9 5.9 0 0 1 3.32-2.85 5.27 5.27 0 0 1 4.32-.12 6 6 0 0 1 2.86 3.47 7.11 7.11 0 0 1 .33 4.09 29.413 29.413 0 0 1-2 5.08 16.57 16.57 0 0 0-1.72 6.24 16.59 16.59 0 0 0 1.4 6.25 3.59 3.59 0 0 0 6.19-.39A3 3 0 0 0 29.4 49c-1.013-2.667-1.18-4.94-.5-6.82l2.1-4.7c1.66-4.04 1.897-7.567.71-10.58-1.34-3.38-3.42-5.607-6.24-6.68ZM28.4 55.13a4.101 4.101 0 0 0-2.4 2.1 4.14 4.14 0 0 0 2 5.2 3.999 3.999 0 0 0 3.22-.08 4.09 4.09 0 0 0 2.43-2.14 4.08 4.08 0 0 0-2.06-5.14 4.08 4.08 0 0 0-3.19.06Z" fill="#267AF2"/></svg>