<svg width="312" height="224" fill="none" xmlns="http://www.w3.org/2000/svg"><path fill-rule="evenodd" clip-rule="evenodd" d="M72.352 12.444a3 3 0 0 0-5.85.77L55.916 218.768a3 3 0 0 0 3.42 3.124l.453-.065c.03-.003.06-.008.089-.012l73.212-10.441a3 3 0 0 0 2.43-3.894L72.352 12.444ZM68.887 214.47l59.827-8.532-11.179-34.515-48.648 43.047Zm45.506-52.748-13.19-40.723-30.916 24.48 44.106 16.243Zm-16.79-51.841L85.16 71.464 70.147 93.27l27.456 16.61ZM82.83 64.269 71.657 29.772l-2.823 54.826 13.996-20.33Zm-14.74 34.77-2.176 42.248 31.19-24.696L68.09 99.038Zm-2.63 51.055-3.204 62.231 50.601-44.776-47.396-17.455Z" fill="#CCE1F0"/><path d="M219.483 170.11c-10.717 18.32-44.973 18.518-76.524.495-31.55-18.023-48.478-47.434-37.76-65.754 10.717-18.32 44.972-18.518 76.523-.495 31.451 18.023 48.478 47.434 37.761 65.754Z" fill="url(#a)"/><path d="M175.012 126.44c9.459 0 17.128-7.581 17.128-16.934 0-9.352-7.669-16.933-17.128-16.933s-17.128 7.581-17.128 16.933c0 9.353 7.669 16.934 17.128 16.934Z" fill="url(#b)"/><path d="M168.101 94.75c1.202-1.188 2.704-1.881 4.407-2.079.1 0 .3 0 .4-.099 5.008-.594 10.217.99 14.123 4.852 3.906 3.862 5.509 9.012 4.908 13.963-.2 1.882-.901 3.466-2.103 4.753-4.007 3.961-12.12 2.377-18.13-3.565-5.909-5.842-7.512-13.863-3.605-17.824Z" fill="#18123D"/><path d="m157.587 107.498-34.196 3.302c.904 9.364 9.313 16.213 18.785 15.298 9.362-1.003 16.306-9.334 15.411-18.6Z" fill="url(#c)"/><path d="M157.587 107.498c.209 2.168.01 4.277-.587 6.424-.527 1.841-1.49 3.327-2.9 4.359-4.619 3.231-12.349.297-17.231-6.494a22.476 22.476 0 0 1-1.306-2.063l22.033-2.127-.009-.099Z" fill="#18123D"/><path d="M90.633 220.913c5.627 1.5 12.846-10.632 14.619-14.32-5.231 12.673-2.682 16.748.064 16.597 2.844-.174 8.404-7.321 14.923-23.973 1.186-3.139 2.706-5.339 6.465-4.307 5.288 1.378 11.7 1.466 13.641-1.957 1.868-3.303-7.387-11.166-21.584-21.102-8.367-5.936-17.713-7.051-25.462.418-7.748 7.47-11.235 24.717-7.096 38.601.808 2.863 1.697 4.382 2.47 5.011-.525 2.471-.125 4.515 1.96 5.032Z" fill="url(#d)"/><path d="M94.243 199.559c-2.766 7.189-9.165 20.143-3.586 21.45 4.803 1.087 12.373-8.785 15.087-15.35 3.208-7.906-8.487-13.959-11.5-6.1Z" fill="url(#e)"/><path d="M247.621 65.042c5.815-3.868 13.957 6.376 3.807 13.798 3.912 1.673 6.238 8.363 2.643 12.44 2.009.836 15.013 8.571-3.701 19.442-9.41 5.436-20.088 1.882-25.586-2.09-8.459-6.063-9.833-17.039-4.652-31.046 5.815-15.889 17.974-22.474 20.723-19.025 2.643 3.45-.529 10.453-1.375 12.44.106.104 4.441-3.45 8.141-5.959Z" fill="url(#f)"/><path d="m240.03 113.9-16.503-2.172c-3.278-.423-5.503-3.575-4.735-6.777l12.036-50.376c.733-3.006 3.266-5.198 6.367-5.513l17.236-1.764c3.102-.315 5.638 2.466 5.003 5.49l-11.423 55.492c-.769 3.668-4.263 6.098-7.981 5.62Z" fill="url(#g)"/><path d="M240.643 81.662c-2.96-3.24-.423-10.348 5.71-15.784 6.132-5.436 11.101-5.017 14.062-1.777 2.96 3.24 2.854 8.153-3.278 13.59-6.132 5.435-13.533 7.212-16.494 3.971Z" fill="url(#h)"/><path d="M239.058 101.314c-.635-3.659 4.229-7.631 10.89-8.885 6.661-1.15 10.044 1.358 10.678 5.017.635 3.659-1.586 7.213-8.247 8.363-6.66 1.254-12.581-.837-13.321-4.495Z" fill="url(#i)"/><path d="M239.058 90.86c-1.269-3.658 3.383-8.675 10.361-11.08 7.084-2.404 11.102-.522 12.37 3.241 1.269 3.763-.528 7.735-7.612 10.14-6.978 2.404-13.745 1.463-15.119-2.3Z" fill="url(#j)"/><path fill-rule="evenodd" clip-rule="evenodd" d="M231.71 19.89a1.5 1.5 0 0 0-2.614 1.473l6.286 11.151a1.5 1.5 0 0 0 2.614-1.473l-6.286-11.15Zm20.493-10.82a1.5 1.5 0 0 1 1.27 1.698l-2.677 18.526a1.5 1.5 0 1 1-2.969-.43l2.677-18.524a1.5 1.5 0 0 1 1.699-1.27Zm9.888 27a1.5 1.5 0 0 1-.284-2.102l7.733-10.153a1.5 1.5 0 1 1 2.386 1.817l-7.733 10.153a1.5 1.5 0 0 1-2.102.285ZM66.049 41.542a1.5 1.5 0 0 0-2.98.341l1.313 11.483-11.309 1.838a1.5 1.5 0 0 0 .481 2.961l11.17-1.815 1.27 11.107a1.5 1.5 0 0 0 2.98-.341l-1.286-11.247 11.202-1.82a1.5 1.5 0 0 0-.481-2.962l-11.063 1.798-1.297-11.343ZM27.463 73.41a1.5 1.5 0 0 1 .404 2.082l-1.987 2.943a1.5 1.5 0 0 1-2.487-1.679l1.988-2.942a1.5 1.5 0 0 1 2.082-.404Zm11.426 2.497a1.5 1.5 0 1 0-2.478-1.692l-5.389 7.895A1.5 1.5 0 0 0 33.5 83.8l5.389-7.894Zm11.057-2.49a1.5 1.5 0 0 1 .392 2.084l-9.414 13.764a1.5 1.5 0 1 1-2.477-1.693l9.414-13.764a1.5 1.5 0 0 1 2.085-.392Zm11.977 2.494a1.5 1.5 0 0 0-2.484-1.681L46.495 93.35a1.5 1.5 0 1 0 2.485 1.682L61.923 75.91Z" fill="#FF4645"/><defs><linearGradient id="d" x1="116.674" y1="214.894" x2="105.013" y2="166.42" gradientUnits="userSpaceOnUse"><stop stop-color="#3FB34B"/><stop offset=".152" stop-color="#4FBE59"/><stop offset=".503" stop-color="#6FD474"/><stop offset=".799" stop-color="#83E184"/><stop offset="1" stop-color="#8AE68A"/></linearGradient><linearGradient id="e" x1="86.75" y1="195.705" x2="105.939" y2="222.006" gradientUnits="userSpaceOnUse"><stop stop-color="#8AE68A"/><stop offset=".074" stop-color="#82E184"/><stop offset=".472" stop-color="#5EC865"/><stop offset=".795" stop-color="#47B952"/><stop offset="1" stop-color="#3FB34B"/></linearGradient><linearGradient id="f" x1="218.244" y1="77.66" x2="258.999" y2="95.036" gradientUnits="userSpaceOnUse"><stop stop-color="#8AE68A"/><stop offset=".201" stop-color="#83E184"/><stop offset=".496" stop-color="#6FD474"/><stop offset=".848" stop-color="#4FBE59"/><stop offset="1" stop-color="#3FB34B"/></linearGradient><linearGradient id="g" x1="213.923" y1="87.416" x2="265.261" y2="74.974" gradientUnits="userSpaceOnUse"><stop stop-color="#3A74E0"/><stop offset="1" stop-color="#70A2FF"/></linearGradient><linearGradient id="h" x1="244.743" y1="65.87" x2="255.891" y2="79.734" gradientUnits="userSpaceOnUse"><stop stop-color="#8AE68A"/><stop offset=".243" stop-color="#7DDD7F"/><stop offset=".691" stop-color="#5AC662"/><stop offset="1" stop-color="#3FB34B"/></linearGradient><linearGradient id="i" x1="244.566" y1="90.962" x2="253.45" y2="105.026" gradientUnits="userSpaceOnUse"><stop stop-color="#8AE68A"/><stop offset=".208" stop-color="#78DA7B"/><stop offset=".731" stop-color="#4FBE58"/><stop offset="1" stop-color="#3FB34B"/></linearGradient><linearGradient id="j" x1="244.333" y1="79.978" x2="254.673" y2="91.663" gradientUnits="userSpaceOnUse"><stop stop-color="#8AE68A"/><stop offset="1" stop-color="#3FB34B"/></linearGradient><radialGradient id="a" cx="0" cy="0" r="1" gradientUnits="userSpaceOnUse" gradientTransform="rotate(-150.006 95.983 40.476) scale(83.6853 53.2943)"><stop stop-color="#8AE68A"/><stop offset=".201" stop-color="#83E184"/><stop offset=".496" stop-color="#6FD474"/><stop offset=".848" stop-color="#4FBE59"/><stop offset="1" stop-color="#3FB34B"/></radialGradient><radialGradient id="b" cx="0" cy="0" r="1" gradientUnits="userSpaceOnUse" gradientTransform="matrix(17.1445 0 0 16.9502 174.996 109.511)"><stop offset=".588" stop-color="#fff"/><stop offset=".723" stop-color="#FBFCFE"/><stop offset=".859" stop-color="#EFF5F9"/><stop offset=".996" stop-color="#DBE7F2"/><stop offset="1" stop-color="#DAE7F2"/></radialGradient><radialGradient id="c" cx="0" cy="0" r="1" gradientUnits="userSpaceOnUse" gradientTransform="matrix(17.24997 -1.66565 1.64678 17.05458 140.569 109.807)"><stop offset=".588" stop-color="#fff"/><stop offset=".723" stop-color="#FBFCFE"/><stop offset=".859" stop-color="#EFF5F9"/><stop offset=".996" stop-color="#DBE7F2"/><stop offset="1" stop-color="#DAE7F2"/></radialGradient></defs></svg>