<svg width="140" height="140" fill="none" xmlns="http://www.w3.org/2000/svg"><path d="M108.335 55.726a5.135 5.135 0 0 0-.117-.617c-1.248-4.623-5.705-8.066-10.6-8.188-4.514-.116-10.526.26-17.886 1.112-5.222-3.583-11.84-4.8-18.011-3.245l-.229.058a22.168 22.168 0 0 0-11.896 7.872 898.47 898.47 0 0 0-11.583 2.222c-3.441.689-6.189 2.526-7.955 5.306-1.513 2.39-2.218 5.387-2.036 8.526-1.802.986-3.158 2.165-4.17 3.616-2.806 4.02-2.148 9.125-1.152 13.255-5.671 3.355-5.806 8.313-4.754 12.129 1.251 4.532 2.641 9.158 3.54 11.784 1.44 4.21 4.631 6.527 9.5 6.924.957 3.469 1.595 5.77 1.608 5.824 2.487 9.23 9.051 13.69 18.991 12.905 2.947-.231 6.919-.976 11.8-2.206 14.032-3.537 33.904-10.759 44.3-16.091 7.399-3.796 14.631-9.226 12.158-20.69-2.131-9.902-10.312-36.615-11.511-40.508l.003.012Z" fill="#fff"/><path d="M44.083 71.689c-1.154-4.602.1-10.307 5.922-11.464 17.09-3.402 43.098-8.023 56.743-7.673 2.889.072 5.556 2.042 6.308 4.829" fill="#fff"/><path d="M44.083 71.689c-1.154-4.602.1-10.307 5.922-11.464 17.09-3.402 43.098-8.023 56.743-7.673 2.889.072 5.556 2.042 6.308 4.829" stroke="#231F20" stroke-width="2" stroke-linecap="round" stroke-linejoin="round"/><path d="M124.279 97.044c1.509 6.993-1.015 11.028-9.568 15.428-12.638 6.497-40.982 16.345-52.689 17.261-8.666.677-12.396-3.492-13.99-9.422 0 0-7.018-25.312-9.453-34.974-2.435-9.662.505-12.096 8.623-14.135 8.118-2.04 40.565-9.71 60.577-16.645a4.378 4.378 0 0 1 5.296 3.1s8.999 29.135 11.212 39.392l-.008-.005Z" fill="#fff" stroke="#231F20" stroke-width="2" stroke-linecap="round" stroke-linejoin="round"/><path d="M124.214 98.065c-6.959 7.62-43.698 22.101-60.167 23.852-4.385 1.18-8.819-1.256-10.63-7.509-1.812-6.253-7.47-28.064-7.47-28.064-1.16-4.308.793-7.852 5.177-9.031 18.517-3.371 42.9-9.597 61.692-17.366" stroke="#231F20" stroke-width="2" stroke-linecap="round" stroke-linejoin="round" stroke-dasharray="6 8"/><path d="M37.19 107.677c-.824-2.409-2.121-6.696-3.358-11.184-1.236-4.488.847-6.656 5.534-8.284l1.652 6.014s12.138-3.214 18.15-3.353c6.01-.138 10.777 4.403 12.337 8.847 1.56 4.444-.13 9.645-7.483 9.259-7.352-.385-14.975 2.292-17.65 2.502-2.676.209-7.599.829-9.181-3.801Z" fill="#fff" stroke="#231F20" stroke-width="2" stroke-linecap="round" stroke-linejoin="round"/><path d="M64.787 104.199c1.588-1.357 1.358-4.233-.515-6.425-1.872-2.192-4.678-2.869-6.266-1.512-1.588 1.357-1.358 4.234.515 6.425 1.872 2.192 4.677 2.869 6.266 1.512ZM35.568 90.12c-3.041 3.142.137 5.466 5.449 4.103" stroke="#231F20" stroke-width="2" stroke-linecap="round" stroke-linejoin="round"/><path d="M78.03 14.792c-8.999-2.51-19.123 4.373-23.178 15.219-4.054 10.846-.928 22.683 7.512 26.69 1.204.572 6.352 2.422 7.55 2.64 8.382 1.514 17.812-4.674 21.868-15.525 4.057-10.851.892-22.078-6.702-26.282-.94-.52-5.769-2.384-7.05-2.742Z" fill="#FFD601" stroke="#231F20" stroke-width="2" stroke-miterlimit="10"/><path d="M77.112 14.629c9.618 2.57 14.284 14.892 9.64 27.311C82.11 54.36 70.507 60.602 61.56 56.23" stroke="#231F20" stroke-width="2" stroke-linecap="round" stroke-linejoin="round"/><path d="m61.592 48.471 9.86-26.374c14.721 3.348 8.022 19.732-1.525 17.16-3.24-.873-7.835-2.789-7.835-2.789m5.648 8.68-7.591-3.101" stroke="#231F20" stroke-width="2" stroke-linecap="round" stroke-linejoin="round"/></svg>