<svg xmlns="http://www.w3.org/2000/svg" xmlns:xlink="http://www.w3.org/1999/xlink" width="128" height="128" style="border-radius:25%"><animate repeatCount="1" dur="2.8s" begin="0s" xlink:href="#a" fill="freeze" attributeName="fill" from="#000000" to="#000000" keyTimes="0;0.0142857;0.0285714;0.0428571;0.0571429;0.0714286;0.0857143;0.1;0.1142857;0.1285714;0.2571429;0.2714286;0.2857143;0.3;0.3142857;0.3285714;0.3428571;0.3571429;0.3714286;0.3857143;1" values="#000000;#ffffff;#ffffff;#00b341;#00b341;#ff5317;#ff5317;#8533ff;#8533ff;#000000;#000000;#ffffff;#ffffff;#00b341;#00b341;#ff5317;#ff5317;#8533ff;#8533ff;#000000;#000000" keySplines="0.167 0.167 0.833 0.833;0.167 0.167 0.833 0.833;0.167 0.167 0.833 0.833;0.167 0.167 0.833 0.833;0.167 0.167 0.833 0.833;0.167 0.167 0.833 0.833;0.167 0.167 0.833 0.833;0.167 0.167 0.833 0.833;0.167 0.167 0.833 0.833;0.167 0.167 0.833 0.833;0.167 0.167 0.833 0.833;0.167 0.167 0.833 0.833;0.167 0.167 0.833 0.833;0.167 0.167 0.833 0.833;0.167 0.167 0.833 0.833;0.167 0.167 0.833 0.833;0.167 0.167 0.833 0.833;0.167 0.167 0.833 0.833;0.167 0.167 0.833 0.833;0 0 0 0" calcMode="spline"/><animateMotion repeatCount="1" dur="2.8s" begin="0s" xlink:href="#b" fill="freeze" keyTimes="0;0.1428571;1" path="M125.5 125.5 C128.33,141.79 139.67,206.96 142.5,223.25 C142.5,223.25 142.5,223.25 142.5,223.25" keyPoints="0;1;1" keySplines="0.3 0 0.3 1;0 0 0 0" calcMode="spline"/><animateTransform repeatCount="1" dur="2.8s" begin="0s" xlink:href="#b" fill="freeze" attributeName="transform" from="1 1" to="10.32 10.32" type="scale" additive="sum" keyTimes="0;0.1428571;1" values="1 1;10.32 10.32;10.32 10.32" keySplines="0.3 0 0.3 1;0 0 0 0" calcMode="spline"/><animateTransform repeatCount="1" dur="2.8s" begin="0s" xlink:href="#b" fill="freeze" attributeName="transform" from="-47.938 -54.375" to="-47.938 -54.375" type="translate" additive="sum" keyTimes="0;1" values="-47.938 -54.375;-47.938 -54.375" keySplines="0 0 1 1" calcMode="spline"/><animate repeatCount="1" dur="2.8s" begin="0s" xlink:href="#c" fill="freeze" attributeName="opacity" from="1" to="0" keyTimes="0;0.5;0.5;1" values="1;1;0;0" keySplines="0 0 0 0;0 0 0 0;0 0 0 0" calcMode="spline"/><animate repeatCount="1" dur="2.8s" begin="0s" xlink:href="#d" fill="freeze" attributeName="fill" from="#000000" to="#000000" keyTimes="0;0.5142857;0.5285714;0.5428571;0.5571429;0.5714286;0.5857143;0.6;0.6142857;0.6285714;0.6428571;1" values="#000000;#000000;#00b341;#00b341;#ff5317;#ff5317;#8533ff;#8533ff;#ffffff;#ffffff;#000000;#000000" keySplines="0.167 0.167 0.833 0.833;0.167 0.167 0.833 0.833;0.167 0.167 0.833 0.833;0.167 0.167 0.833 0.833;0.167 0.167 0.833 0.833;0.167 0.167 0.833 0.833;0.167 0.167 0.833 0.833;0.167 0.167 0.833 0.833;0.167 0.167 0.833 0.833;0.167 0.167 0.833 0.833;0 0 0 0" calcMode="spline"/><animateMotion repeatCount="1" dur="2.8s" begin="0s" xlink:href="#e" fill="freeze" keyTimes="0;0.5;0.6428571;1" path="M142.5 223.25 C142.5,223.25 142.5,223.25 142.5,223.25 C139.67,206.96 128.33,141.79 125.5,125.5 C125.5,125.5 125.5,125.5 125.5,125.5" keyPoints="0;0;1;1" keySplines="0.6 0 0.7 1;0.6 0 0.7 1;0 0 0 0" calcMode="spline"/><animateTransform repeatCount="1" dur="2.8s" begin="0s" xlink:href="#e" fill="freeze" attributeName="transform" from="10.32 10.32" to="1 1" type="scale" additive="sum" keyTimes="0;0.5;0.6428571;0.6571429;0.6714286;0.6857143;0.7;0.7142857;0.7285714;0.7428571;0.7571429;0.7714286;0.7857143;0.8;0.8142857;0.8285714;0.8428571;0.8571429;0.8714286;0.8857143;0.9;0.9142857;0.9285714;0.9428571;0.9571429;0.9714286;0.9857143;1" values="10.32 10.32;10.32 10.32;1 1;0.903 0.903;0.8840000000000001 0.8840000000000001;0.927 0.927;0.99 0.99;1.0370000000000001 1.0370000000000001;1.051 1.051;1.036 1.036;1.0090000000000001 1.0090000000000001;0.986 0.986;0.978 0.978;0.983 0.983;0.9940000000000001 0.9940000000000001;1.0050000000000001 1.0050000000000001;1.01 1.01;1.008 1.008;1.003 1.003;0.9990000000000001 0.9990000000000001;0.996 0.996;0.996 0.996;0.998 0.998;1 1;1.002 1.002;1.0015 1.0015;1 1;1 1" keySplines="0.6 0 0.7 1;0.6 0 0.7 1;0.167 0 0.833 1;0.167 0 0.833 1;0.167 0 0.833 1;0.167 0 0.833 1;0.167 0 0.833 1;0.167 0 0.833 1;0.167 0 0.833 1;0.167 0 0.833 1;0.167 0 0.833 1;0.167 0 0.833 1;0.167 0 0.833 1;0.167 0 0.833 1;0.167 0 0.833 1;0.167 0 0.833 1;0.167 0 0.833 1;0.167 0 0.833 1;0.167 0 0.833 1;0.167 0 0.833 1;0.167 0 0.833 1;0.167 0 0.833 1;0.167 0 0.833 1;0.167 0 0.833 1;0.167 0 0.583 0.5;0.417 0.167 0.833 1;0 0 0 0" calcMode="spline"/><animateTransform repeatCount="1" dur="2.8s" begin="0s" xlink:href="#e" fill="freeze" attributeName="transform" from="-47.938 -54.375" to="-47.938 -54.375" type="translate" additive="sum" keyTimes="0;1" values="-47.938 -54.375;-47.938 -54.375" keySplines="0 0 1 1" calcMode="spline"/><animate repeatCount="1" dur="2.8s" begin="0s" xlink:href="#f" fill="freeze" attributeName="opacity" from="0" to="1" keyTimes="0;0.5;0.5000014;1" values="0;0;1;1" keySplines="0 0 0 0;0 0 0 0;0 0 0 0" calcMode="spline"/><animateTransform repeatCount="1" dur="2.8s" begin="0s" xlink:href="#g" fill="freeze" attributeName="transform" from="0 0" to="0 0" type="scale" additive="sum" keyTimes="0;0.1428571;0.1571429;0.1714286;0.1857143;0.2;0.2142857;0.2285714;0.2428571;0.2571429;0.2714286;0.2857143;0.3;0.3142857;0.3285714;0.3428571;0.3571429;0.3714286;0.3857143;0.4;0.4142857;0.4285714;0.4428571;0.4571429;0.4714286;0.5;0.6428571;1" values="0 0;1 1;1.045 1.045;1.053 1.053;1.034 1.034;1.004 1.004;0.983 0.983;0.976 0.976;0.983 0.983;0.996 0.996;1.006 1.006;1.01 1.01;1.008 1.008;1.003 1.003;0.998 0.998;0.996 0.996;0.99599 0.99599;0.998 0.998;1.001 1.001;1.002 1.002;1.00192 1.00192;1.001 1.001;1 1;0.9990000000000001 0.9990000000000001;0.99926 0.99926;1 1;0 0;0 0" keySplines="0.65 0 0.35 1;0.34 0 0.673 1;0.34 0 0.673 1;0.341 0.002 0.674 0.995;0.341 0.003 0.674 0.995;0.341 0.007 0.675 0.994;0.342 0.02 0.675 0.986;0.342 0 0.675 1;0.343 0 0.676 1;0.343 0 0.676 0.999;0.344 0.004 0.677 1;0.345 0.004 0.678 0.975;0.345 0.011 0.678 0.983;0.346 0.018 0.678 0.982;0.34 0.048 0.673 0.979;0.339 1 0.672 1;0.337 0.017 0.67 0.95;0.336 0.034 0.668 0.964;0.334 0.108 0.666 0.977;0.332 0 0.664 0.117;0.33 0.077 0.663 0.858;0.328 0.127 0.661 0.892;0.327 0.105 0.66 0.985;0.326 0 0.659 0.393;0.318 0.402 0.65 1;0.6 0 0.7 1;0 0 0 0" calcMode="spline"/><animateTransform repeatCount="1" dur="2.8s" begin="0s" xlink:href="#g" fill="freeze" attributeName="transform" from="-50.438 -56.875" to="-50.438 -56.875" type="translate" additive="sum" keyTimes="0;1" values="-50.438 -56.875;-50.438 -56.875" keySplines="0 0 1 1" calcMode="spline"/><animate repeatCount="1" dur="2.8s" begin="0s" xlink:href="#h" fill="freeze" attributeName="opacity" from="1" to="0" keyTimes="0;0.6571429;0.6571429;1" values="1;1;0;0" keySplines="0 0 0 0;0 0 0 0;0 0 0 0" calcMode="spline"/><animateMotion repeatCount="1" dur="2.8s" begin="0s" xlink:href="#i" fill="freeze" keyTimes="0;0.2;0.4428571;1" path="M-27 18.5 C-27,18.5 -27,18.5 -27,18.5 C3.58,32.75 125.92,89.75 156.5,104 C156.5,104 156.5,104 156.5,104" keyPoints="0;0;1;1" keySplines="0.333 0 0.667 1;0.333 0 0.667 1;0 0 0 0" calcMode="spline"/><animateTransform repeatCount="1" dur="2.8s" begin="0s" xlink:href="#i" fill="freeze" attributeName="transform" from="23" to="23" type="rotate" additive="sum" keyTimes="0;1" values="23;23" keySplines="0 0 1 1" calcMode="spline"/><animate repeatCount="1" dur="2.8s" begin="0s" xlink:href="#j" fill="freeze" attributeName="opacity" from="0" to="0" keyTimes="0;0.2;0.2000014;0.4571429;0.4571429;1" values="0;0;1;1;0;0" keySplines="0 0 0 0;0 0 0 0;0 0 0 0;0 0 0 0;0 0 0 0" calcMode="spline"/><animate attributeType="XML" attributeName="opacity" dur="3s" from="0" to="1" xlink:href="#k"/><path fill="#ffd601" d="M128 32v64c0 17.66-14.34 32-32 32H32c-17.66 0-32-14.34-32-32V32C0 14.34 14.34 0 32 0h64c17.66 0 32 14.34 32 32z"/><g id="c"><g id="b"><path id="a" fill="#000" fill-opacity="1" fill-rule="nonzero" d="M26.36 14.68c2.25-3.54 4.82-6.6 7.62-8.24 1.4-.81 2.83-1.26 4.3-1.26 1.48 0 3.05.44 4.72 1.5 1.66 1.06 2.73 2.29 3.36 3.63.62 1.34.82 2.83.68 4.43-.3 3.24-1.98 6.86-4.23 10.4-2.25 3.54-4.82 6.6-7.62 8.24-1.4.81-2.83 1.26-4.31 1.26-1.47 0-3.04-.44-4.71-1.5s-2.73-2.3-3.36-3.63c-.62-1.34-.82-2.83-.68-4.43.29-3.24 1.98-6.86 4.23-10.4zM51.19-6.21c-7.65-4.86-15.05-4.91-21.55-2.08-6.47 2.81-12 8.43-16.07 14.83s-6.82 13.8-6.62 20.84c.2 7.09 3.38 13.78 11.03 18.64 7.65 4.87 15.05 4.91 21.55 2.08 6.47-2.81 12-8.43 16.07-14.83s6.82-13.79 6.62-20.84c-.2-7.09-3.38-13.77-11.03-18.64zm-93.85-19.2c2.34-3.48 4.99-6.47 7.85-8.03 1.41-.77 2.85-1.18 4.33-1.14 1.47.04 3.03.52 4.67 1.63 1.64 1.1 2.67 2.37 3.26 3.72.59 1.35.74 2.85.56 4.45-.38 3.22-2.16 6.8-4.51 10.28-2.35 3.47-5 6.46-7.85 8.02-1.41.77-2.86 1.19-4.34 1.15-1.47-.04-3.03-.53-4.66-1.64-1.64-1.1-2.68-2.36-3.26-3.71-.59-1.36-.75-2.85-.56-4.45.38-3.23 2.16-6.81 4.51-10.28zm69.88-15.9a7.781 7.781 0 0 0-10.79 2.17l-47.69 71.72a7.781 7.781 0 0 0 2.17 10.79A7.781 7.781 0 0 0-18.3 41.2l47.69-71.72a7.781 7.781 0 0 0-2.17-10.79zm-44.49-4.3c-7.51-5.07-14.91-5.32-21.49-2.67-6.54 2.63-12.22 8.1-16.46 14.38-4.25 6.29-7.2 13.61-7.19 20.66 0 7.09 3 13.85 10.51 18.93 7.52 5.07 14.91 5.32 21.49 2.67 6.54-2.63 12.22-8.1 16.47-14.39 4.24-6.28 7.19-13.6 7.19-20.65-.01-7.09-3-13.86-10.52-18.93z"/></g></g><g id="f"><g id="e"><path id="d" fill="#000" fill-opacity="1" fill-rule="nonzero" d="M26.36 14.68c2.25-3.54 4.82-6.6 7.62-8.24 1.4-.81 2.83-1.26 4.3-1.26 1.48 0 3.05.44 4.72 1.5 1.66 1.06 2.73 2.29 3.36 3.63.62 1.34.82 2.83.68 4.43-.3 3.24-1.98 6.86-4.23 10.4-2.25 3.54-4.82 6.6-7.62 8.24-1.4.81-2.83 1.26-4.31 1.26-1.47 0-3.04-.44-4.71-1.5s-2.73-2.3-3.36-3.63c-.62-1.34-.82-2.83-.68-4.43.29-3.24 1.98-6.86 4.23-10.4zM51.19-6.21c-7.65-4.86-15.05-4.91-21.55-2.08-6.47 2.81-12 8.43-16.07 14.83s-6.82 13.8-6.62 20.84c.2 7.09 3.38 13.78 11.03 18.64 7.65 4.87 15.05 4.91 21.55 2.08 6.47-2.81 12-8.43 16.07-14.83s6.82-13.79 6.62-20.84c-.2-7.09-3.38-13.77-11.03-18.64zm-93.85-19.2c2.34-3.48 4.99-6.47 7.85-8.03 1.41-.77 2.85-1.18 4.33-1.14 1.47.04 3.03.52 4.67 1.63 1.64 1.1 2.67 2.37 3.26 3.72.59 1.35.74 2.85.56 4.45-.38 3.22-2.16 6.8-4.51 10.28-2.35 3.47-5 6.46-7.85 8.02-1.41.77-2.86 1.19-4.34 1.15-1.47-.04-3.03-.53-4.66-1.64-1.64-1.1-2.68-2.36-3.26-3.71-.59-1.36-.75-2.85-.56-4.45.38-3.23 2.16-6.81 4.51-10.28zm69.88-15.9a7.781 7.781 0 0 0-10.79 2.17l-47.69 71.72a7.781 7.781 0 0 0 2.17 10.79A7.781 7.781 0 0 0-18.3 41.2l47.69-71.72a7.781 7.781 0 0 0-2.17-10.79zm-44.49-4.3c-7.51-5.07-14.91-5.32-21.49-2.67-6.54 2.63-12.22 8.1-16.46 14.38-4.25 6.29-7.2 13.61-7.19 20.66 0 7.09 3 13.85 10.51 18.93 7.52 5.07 14.91 5.32 21.49 2.67 6.54-2.63 12.22-8.1 16.47-14.39 4.24-6.28 7.19-13.6 7.19-20.65-.01-7.09-3-13.86-10.52-18.93z"/></g></g><g id="h"><path fill="#fff" d="M26.36 14.68c2.25-3.54 4.82-6.6 7.62-8.24 1.4-.81 2.83-1.26 4.3-1.26 1.48 0 3.05.44 4.72 1.5 1.66 1.06 2.73 2.29 3.36 3.63.62 1.34.82 2.83.68 4.43-.3 3.24-1.98 6.86-4.23 10.4-2.25 3.54-4.82 6.6-7.62 8.24-1.4.81-2.83 1.26-4.31 1.26-1.47 0-3.04-.44-4.71-1.5s-2.73-2.3-3.36-3.63c-.62-1.34-.82-2.83-.68-4.43.29-3.24 1.98-6.86 4.23-10.4zM51.19-6.21c-7.65-4.86-15.05-4.91-21.55-2.08-6.47 2.81-12 8.43-16.07 14.83s-6.82 13.8-6.62 20.84c.2 7.09 3.38 13.78 11.03 18.64 7.65 4.87 15.05 4.91 21.55 2.08 6.47-2.81 12-8.43 16.07-14.83s6.82-13.79 6.62-20.84c-.2-7.09-3.38-13.77-11.03-18.64zm-93.85-19.2c2.34-3.48 4.99-6.47 7.85-8.03 1.41-.77 2.85-1.18 4.33-1.14 1.47.04 3.03.52 4.67 1.63 1.64 1.1 2.67 2.37 3.26 3.72.59 1.35.74 2.85.56 4.45-.38 3.22-2.16 6.8-4.51 10.28-2.35 3.47-5 6.46-7.85 8.02-1.41.77-2.86 1.19-4.34 1.15-1.47-.04-3.03-.53-4.66-1.64-1.64-1.1-2.68-2.36-3.26-3.71-.59-1.36-.75-2.85-.56-4.45.38-3.23 2.16-6.81 4.51-10.28zm69.88-15.9a7.781 7.781 0 0 0-10.79 2.17l-47.69 71.72a7.781 7.781 0 0 0 2.17 10.79A7.781 7.781 0 0 0-18.3 41.2l47.69-71.72a7.781 7.781 0 0 0-2.17-10.79zm-44.49-4.3c-7.51-5.07-14.91-5.32-21.49-2.67-6.54 2.63-12.22 8.1-16.46 14.38-4.25 6.29-7.2 13.61-7.19 20.66 0 7.09 3 13.85 10.51 18.93 7.52 5.07 14.91 5.32 21.49 2.67 6.54-2.63 12.22-8.1 16.47-14.39 4.24-6.28 7.19-13.6 7.19-20.65-.01-7.09-3-13.86-10.52-18.93z" transform="translate(128 128)" id="g"/></g><g id="j"><path fill="#fff" d="M15-87.5v175h-30v-175h30z" id="i" opacity=".5"/></g><path fill="none" d="M128 32v64c0 17.672-14.328 32-32 32H32c-17.672 0-32-14.328-32-32V32C0 14.328 14.328 0 32 0h64c17.672 0 32 14.328 32 32z"/></svg>