<svg width="130" height="130" fill="none" xmlns="http://www.w3.org/2000/svg"><circle cx="65" cy="65" r="63.016" fill="#FFFBFB" stroke="#FFF6F6" stroke-width="2.682"/><path fill-rule="evenodd" clip-rule="evenodd" d="M39.758 38.009c0-.004.003-.007.007-.007h6.449c.563 0 1.019.456 1.019 1.02v.087a.931.931 0 0 1-.931.932c-.83 0-1.245 1.003-.66 1.59L61.21 57.207a1.36 1.36 0 0 0 1.923 0L81.03 39.299a.969.969 0 0 1 .088-.08c.274-.213 1.738-1.285 3.488-1.214l.002-.001c0-.001 0-.002.002-.002h5.774a1.02 1.02 0 1 1 0 2.039h-.162c-.94 0-1.571 1.125-1.55 2.065.042 1.754-1.008 3.296-1.25 3.627-.033.045-.07.085-.11.125L69.445 63.514a1.36 1.36 0 0 0-.006 1.927l17.905 17.917a1.061 1.061 0 0 1 .056.061c.19.229 1.34 1.684 1.284 3.452-.03.95.588 2.097 1.539 2.097h.162a1.02 1.02 0 1 1 0 2.038H84.61a.002.002 0 0 1-.002-.002.003.003 0 0 0-.003-.003c-1.79.081-3.27-1.09-3.501-1.282a.917.917 0 0 1-.062-.057L63.133 71.741a1.36 1.36 0 0 0-1.923 0L45.613 87.348c-.597.598-.174 1.62.671 1.62.524 0 .949.424.949.948v.07a1.02 1.02 0 0 1-1.02 1.02h-6.44a.014.014 0 0 1-.015-.014.014.014 0 0 0-.014-.015c-.893-.032-1.859-.369-2.774-1.284-2.707-2.71-.35-5.865-.034-6.263a.98.98 0 0 1 .073-.08L54.905 65.44a1.36 1.36 0 0 0-.006-1.927L37.035 45.86a1.027 1.027 0 0 1-.116-.133c-.377-.526-2.615-3.9.051-6.471.919-.886 1.887-1.211 2.782-1.241a.007.007 0 0 0 .006-.007Z" fill="url(#a)"/><path d="M43.033 45.726c-.377-.526-2.615-3.9.052-6.472 2.693-2.598 5.818-.37 6.25-.04a.957.957 0 0 1 .097.087l17.893 17.905c.53.531 1.391.531 1.922 0l17.897-17.909a.955.955 0 0 1 .089-.08c.412-.322 3.527-2.592 6.254.037 2.7 2.603.42 5.968.05 6.476-.034.046-.07.086-.11.125L75.558 63.512a1.36 1.36 0 0 0-.006 1.927l17.905 17.917.057.061c.287.345 2.758 3.486-.027 6.273-2.785 2.787-5.924.314-6.269.027a.892.892 0 0 1-.061-.057L69.247 71.74a1.36 1.36 0 0 0-1.922 0L49.424 89.65a.964.964 0 0 1-.081.074c-.398.317-3.551 2.674-6.258-.035-2.708-2.709-.352-5.864-.035-6.262a.948.948 0 0 1 .074-.081l17.895-17.908a1.36 1.36 0 0 0-.006-1.927L43.15 45.859a1.023 1.023 0 0 1-.116-.133Z" fill="url(#b)"/><defs><linearGradient id="a" x1="-41.399" y1="38.202" x2="183.764" y2="178.747" gradientUnits="userSpaceOnUse"><stop stop-color="#FF4949"/><stop offset="1" stop-color="#FF5F5F" stop-opacity="0"/></linearGradient><linearGradient id="b" x1="161.601" y1="87.202" x2="40.343" y2="19.43" gradientUnits="userSpaceOnUse"><stop stop-color="#FF8080"/><stop offset="1" stop-color="#FFE8E8"/></linearGradient></defs></svg>