<svg width="80" height="80" fill="none" xmlns="http://www.w3.org/2000/svg"><g clip-path="url(#a)"><path fill="#fff" d="M0 0h80v80H0z"/><path fill-rule="evenodd" clip-rule="evenodd" d="M-.36 3.466h3.827V-.361H-.359v3.827ZM-.36 7.294h3.827V3.467H-.359v3.827Z" fill="#000"/><path fill-rule="evenodd" clip-rule="evenodd" d="M-.36 11.12h3.827V7.293H-.359v3.827Z" fill="#000"/><path fill-rule="evenodd" clip-rule="evenodd" d="M-.36 14.946h3.827V11.12H-.359v3.826ZM-.36 18.773h3.827v-3.826H-.359v3.826ZM-.36 22.6h3.827v-3.827H-.359V22.6Z" fill="#000"/><path fill-rule="evenodd" clip-rule="evenodd" d="M-.36 26.426h3.827v-3.827H-.359v3.827ZM-.36 34.08h3.827v-3.827H-.359v3.827ZM-.36 57.04h3.827v-3.827H-.359v3.827ZM-.36 60.866h3.827V57.04H-.359v3.827ZM-.36 64.693h3.827v-3.826H-.359v3.826ZM-.36 68.52h3.827v-3.827H-.359v3.826ZM-.36 72.347h3.827V68.52H-.359v3.827ZM-.36 76.174h3.827v-3.827H-.359v3.827Z" fill="#000"/><path fill-rule="evenodd" clip-rule="evenodd" d="M-.36 80h3.827v-3.827H-.359V80ZM3.469 3.466h3.826V-.361H3.47v3.827ZM3.469 26.426h3.826v-3.827H3.47v3.827ZM3.469 37.906h3.826V34.08H3.47v3.826ZM3.469 41.733h3.826v-3.826H3.47v3.826ZM3.469 49.387h3.826V45.56H3.47v3.827ZM3.469 57.04h3.826v-3.827H3.47v3.827ZM3.469 80h3.826v-3.827H3.47V80Z" fill="#000"/><path fill-rule="evenodd" clip-rule="evenodd" d="M7.293 3.466h3.827V-.361H7.293v3.827Z" fill="#000"/><path fill-rule="evenodd" clip-rule="evenodd" d="M7.293 11.12h3.827V7.293H7.293v3.827Z" fill="#FFDB4C"/><path fill-rule="evenodd" clip-rule="evenodd" d="M7.293 14.946h3.827V11.12H7.293v3.826ZM7.293 18.773h3.827v-3.826H7.293v3.826Z" fill="#FFDB4C"/><path fill-rule="evenodd" clip-rule="evenodd" d="M7.293 26.426h3.827v-3.827H7.293v3.827ZM7.293 45.56h3.827v-3.827H7.293v3.827ZM7.293 49.387h3.827V45.56H7.293v3.827ZM7.293 57.04h3.827v-3.827H7.293v3.827Z" fill="#000"/><path fill-rule="evenodd" clip-rule="evenodd" d="M7.293 64.693h3.827v-3.826H7.293v3.826ZM7.293 68.52h3.827v-3.827H7.293v3.826ZM7.293 72.347h3.827V68.52H7.293v3.827Z" fill="#27AE61"/><path fill-rule="evenodd" clip-rule="evenodd" d="M7.293 80h3.827v-3.827H7.293V80ZM11.121 3.466h3.827V-.361H11.12v3.827Z" fill="#000"/><path fill-rule="evenodd" clip-rule="evenodd" d="M11.121 11.12h3.827V7.293H11.12v3.827Z" fill="#FFDB4C"/><path fill-rule="evenodd" clip-rule="evenodd" d="M11.121 14.946h3.827V11.12H11.12v3.826ZM11.121 18.773h3.827v-3.826H11.12v3.826Z" fill="#FFDB4C"/><path fill-rule="evenodd" clip-rule="evenodd" d="M11.121 26.426h3.827v-3.827H11.12v3.827ZM11.121 45.56h3.827v-3.827H11.12v3.827ZM11.121 49.387h3.827V45.56H11.12v3.827ZM11.121 57.04h3.827v-3.827H11.12v3.827Z" fill="#000"/><path fill-rule="evenodd" clip-rule="evenodd" d="M11.121 64.693h3.827v-3.826H11.12v3.826ZM11.121 68.52h3.827v-3.827H11.12v3.826ZM11.121 72.347h3.827V68.52H11.12v3.827Z" fill="#27AE61"/><path fill-rule="evenodd" clip-rule="evenodd" d="M11.121 80h3.827v-3.827H11.12V80ZM14.947 3.466h3.827V-.361h-3.827v3.827Z" fill="#000"/><path fill-rule="evenodd" clip-rule="evenodd" d="M14.947 11.12h3.827V7.293h-3.827v3.827Z" fill="#FFDB4C"/><path fill-rule="evenodd" clip-rule="evenodd" d="M14.947 14.946h3.827V11.12h-3.827v3.826ZM14.947 18.773h3.827v-3.826h-3.827v3.826Z" fill="#FFDB4C"/><path fill-rule="evenodd" clip-rule="evenodd" d="M14.947 26.426h3.827v-3.827h-3.827v3.827ZM14.947 34.08h3.827v-3.827h-3.827v3.827ZM14.947 37.906h3.827V34.08h-3.827v3.826ZM14.947 41.733h3.827v-3.826h-3.827v3.826ZM14.947 57.04h3.827v-3.827h-3.827v3.827Z" fill="#000"/><path fill-rule="evenodd" clip-rule="evenodd" d="M14.947 64.693h3.827v-3.826h-3.827v3.826ZM14.947 68.52h3.827v-3.827h-3.827v3.826ZM14.947 72.347h3.827V68.52h-3.827v3.827Z" fill="#27AE61"/><path fill-rule="evenodd" clip-rule="evenodd" d="M14.947 80h3.827v-3.827h-3.827V80ZM18.773 3.466H22.6V-.361h-3.827v3.827ZM18.773 26.426H22.6v-3.827h-3.827v3.827ZM18.773 37.906H22.6V34.08h-3.827v3.826ZM18.773 41.733H22.6v-3.826h-3.827v3.826ZM18.773 49.387H22.6V45.56h-3.827v3.827ZM18.773 57.04H22.6v-3.827h-3.827v3.827Z" fill="#000"/><path fill-rule="evenodd" clip-rule="evenodd" d="M18.773 80H22.6v-3.827h-3.827V80ZM22.602 3.466h3.826V-.361h-3.826v3.827ZM22.602 7.294h3.826V3.467h-3.826v3.827Z" fill="#000"/><path fill-rule="evenodd" clip-rule="evenodd" d="M22.602 11.12h3.826V7.293h-3.826v3.827Z" fill="#000"/><path fill-rule="evenodd" clip-rule="evenodd" d="M22.602 14.946h3.826V11.12h-3.826v3.826ZM22.602 18.773h3.826v-3.826h-3.826v3.826ZM22.602 22.6h3.826v-3.827h-3.826V22.6Z" fill="#000"/><path fill-rule="evenodd" clip-rule="evenodd" d="M22.602 26.426h3.826v-3.827h-3.826v3.827ZM22.602 34.08h3.826v-3.827h-3.826v3.827ZM22.602 41.733h3.826v-3.826h-3.826v3.826ZM22.602 49.387h3.826V45.56h-3.826v3.827ZM22.602 57.04h3.826v-3.827h-3.826v3.827ZM22.602 60.866h3.826V57.04h-3.826v3.827ZM22.602 64.693h3.826v-3.826h-3.826v3.826ZM22.602 68.52h3.826v-3.827h-3.826v3.826ZM22.602 72.347h3.826V68.52h-3.826v3.827ZM22.602 76.174h3.826v-3.827h-3.826v3.827Z" fill="#000"/><path fill-rule="evenodd" clip-rule="evenodd" d="M22.602 80h3.826v-3.827h-3.826V80ZM26.428 34.08h3.826v-3.827h-3.826v3.827ZM26.428 37.906h3.826V34.08h-3.826v3.826ZM30.254 3.466h3.827V-.361h-3.827v3.827ZM30.254 14.946h3.827V11.12h-3.827v3.826ZM30.254 18.773h3.827v-3.826h-3.827v3.826ZM30.254 22.6h3.827v-3.827h-3.827V22.6Z" fill="#000"/><path fill-rule="evenodd" clip-rule="evenodd" d="M30.254 26.426h3.827v-3.827h-3.827v3.827ZM30.254 30.254h3.827v-3.827h-3.827v3.827Z" fill="#000"/><path fill-rule="evenodd" clip-rule="evenodd" d="M30.254 34.08h3.827v-3.827h-3.827v3.827ZM30.254 37.906h3.827V34.08h-3.827v3.826ZM30.254 49.387h3.827V45.56h-3.827v3.827ZM30.254 53.214h3.827v-3.827h-3.827v3.827Z" fill="#000"/><path fill-rule="evenodd" clip-rule="evenodd" d="M30.254 57.04h3.827v-3.827h-3.827v3.827ZM30.254 64.693h3.827v-3.826h-3.827v3.826ZM30.254 80h3.827v-3.827h-3.827V80ZM34.08 11.12h3.827V7.293H34.08v3.827ZM34.08 30.254h3.827v-3.827H34.08v3.827ZM34.08 45.56h3.827v-3.827H34.08v3.827Z" fill="#000"/><path fill-rule="evenodd" clip-rule="evenodd" d="M34.08 64.693h3.827v-3.826H34.08v3.826ZM34.08 68.52h3.827v-3.827H34.08v3.826ZM34.08 80h3.827v-3.827H34.08V80ZM37.908 3.466h3.827V-.361h-3.827v3.827ZM37.908 7.294h3.827V3.467h-3.827v3.827ZM37.908 14.946h3.827V11.12h-3.827v3.826ZM37.908 22.6h3.827v-3.827h-3.827V22.6Z" fill="#000"/><path fill-rule="evenodd" clip-rule="evenodd" d="M37.908 26.426h3.827v-3.827h-3.827v3.827ZM37.908 45.56h3.827v-3.827h-3.827v3.827ZM37.908 49.387h3.827V45.56h-3.827v3.827ZM37.908 57.04h3.827v-3.827h-3.827v3.827ZM37.908 64.693h3.827v-3.826h-3.827v3.826ZM37.908 72.347h3.827V68.52h-3.827v3.827ZM41.734 7.294h3.827V3.467h-3.827v3.827Z" fill="#000"/><path fill-rule="evenodd" clip-rule="evenodd" d="M41.734 11.12h3.827V7.293h-3.827v3.827ZM41.734 34.08h3.827v-3.827h-3.827v3.827ZM41.734 37.906h3.827V34.08h-3.827v3.826ZM41.734 45.56h3.827v-3.827h-3.827v3.827ZM41.734 53.214h3.827v-3.827h-3.827v3.827ZM41.734 60.866h3.827V57.04h-3.827v3.827ZM41.734 64.693h3.827v-3.826h-3.827v3.826ZM41.734 72.347h3.827V68.52h-3.827v3.827ZM41.734 76.174h3.827v-3.827h-3.827v3.827Z" fill="#000"/><path fill-rule="evenodd" clip-rule="evenodd" d="M41.734 80h3.827v-3.827h-3.827V80ZM45.56 7.294h3.827V3.467H45.56v3.827Z" fill="#000"/><path fill-rule="evenodd" clip-rule="evenodd" d="M45.56 11.12h3.827V7.293H45.56v3.827Z" fill="#000"/><path fill-rule="evenodd" clip-rule="evenodd" d="M45.56 14.946h3.827V11.12H45.56v3.826ZM45.56 18.773h3.827v-3.826H45.56v3.826ZM45.56 22.6h3.827v-3.827H45.56V22.6Z" fill="#000"/><path fill-rule="evenodd" clip-rule="evenodd" d="M45.56 26.426h3.827v-3.827H45.56v3.827ZM45.56 34.08h3.827v-3.827H45.56v3.827ZM45.56 45.56h3.827v-3.827H45.56v3.827ZM45.56 49.387h3.827V45.56H45.56v3.827ZM45.56 60.866h3.827V57.04H45.56v3.827ZM49.389 34.08h3.826v-3.827H49.39v3.827ZM49.389 45.56h3.826v-3.827H49.39v3.827ZM49.389 49.387h3.826V45.56H49.39v3.827ZM49.389 57.04h3.826v-3.827H49.39v3.827ZM49.389 60.866h3.826V57.04H49.39v3.827ZM49.389 64.693h3.826v-3.826H49.39v3.826ZM49.389 68.52h3.826v-3.827H49.39v3.826ZM49.389 72.347h3.826V68.52H49.39v3.827ZM49.389 76.174h3.826v-3.827H49.39v3.827Z" fill="#000"/><path fill-rule="evenodd" clip-rule="evenodd" d="M49.389 80h3.826v-3.827H49.39V80ZM53.213 3.466h3.827V-.361h-3.827v3.827ZM53.213 7.294h3.827V3.467h-3.827v3.827Z" fill="#000"/><path fill-rule="evenodd" clip-rule="evenodd" d="M53.213 11.12h3.827V7.293h-3.827v3.827Z" fill="#000"/><path fill-rule="evenodd" clip-rule="evenodd" d="M53.213 14.946h3.827V11.12h-3.827v3.826ZM53.213 18.773h3.827v-3.826h-3.827v3.826ZM53.213 22.6h3.827v-3.827h-3.827V22.6Z" fill="#000"/><path fill-rule="evenodd" clip-rule="evenodd" d="M53.213 26.426h3.827v-3.827h-3.827v3.827ZM53.213 34.08h3.827v-3.827h-3.827v3.827ZM53.213 37.906h3.827V34.08h-3.827v3.826ZM53.213 53.214h3.827v-3.827h-3.827v3.827ZM53.213 68.52h3.827v-3.827h-3.827v3.826ZM57.041 3.466h3.827V-.361H57.04v3.827ZM57.041 26.426h3.827v-3.827H57.04v3.827ZM57.041 34.08h3.827v-3.827H57.04v3.827ZM57.041 60.866h3.827V57.04H57.04v3.827ZM57.041 64.693h3.827v-3.826H57.04v3.826ZM57.041 80h3.827v-3.827H57.04V80Z" fill="#000"/><path fill-rule="evenodd" clip-rule="evenodd" d="M60.867 3.466h3.827V-.361h-3.827v3.827Z" fill="#000"/><path fill-rule="evenodd" clip-rule="evenodd" d="M60.867 11.12h3.827V7.293h-3.827v3.827Z" fill="#F55"/><path fill-rule="evenodd" clip-rule="evenodd" d="M60.867 14.946h3.827V11.12h-3.827v3.826ZM60.867 18.773h3.827v-3.826h-3.827v3.826Z" fill="#F55"/><path fill-rule="evenodd" clip-rule="evenodd" d="M60.867 26.426h3.827v-3.827h-3.827v3.827ZM60.867 34.08h3.827v-3.827h-3.827v3.827ZM60.867 37.906h3.827V34.08h-3.827v3.826ZM60.867 41.733h3.827v-3.826h-3.827v3.826ZM60.867 45.56h3.827v-3.827h-3.827v3.827ZM60.867 53.214h3.827v-3.827h-3.827v3.827Z" fill="#000"/><path fill-rule="evenodd" clip-rule="evenodd" d="M60.867 57.04h3.827v-3.827h-3.827v3.827ZM60.867 60.866h3.827V57.04h-3.827v3.827ZM60.867 68.52h3.827v-3.827h-3.827v3.826ZM60.867 72.347h3.827V68.52h-3.827v3.827ZM60.867 76.174h3.827v-3.827h-3.827v3.827ZM64.693 3.466h3.827V-.361h-3.827v3.827Z" fill="#000"/><path fill-rule="evenodd" clip-rule="evenodd" d="M64.693 11.12h3.827V7.293h-3.827v3.827Z" fill="#F55"/><path fill-rule="evenodd" clip-rule="evenodd" d="M64.693 14.946h3.827V11.12h-3.827v3.826ZM64.693 18.773h3.827v-3.826h-3.827v3.826Z" fill="#F55"/><path fill-rule="evenodd" clip-rule="evenodd" d="M64.693 26.426h3.827v-3.827h-3.827v3.827ZM64.693 34.08h3.827v-3.827h-3.827v3.827ZM64.693 37.906h3.827V34.08h-3.827v3.826ZM64.693 49.387h3.827V45.56h-3.827v3.827ZM64.693 53.214h3.827v-3.827h-3.827v3.827ZM64.693 60.866h3.827V57.04h-3.827v3.827ZM64.693 68.52h3.827v-3.827h-3.827v3.826ZM64.693 72.347h3.827V68.52h-3.827v3.827ZM68.522 3.466h3.826V-.361h-3.826v3.827Z" fill="#000"/><path fill-rule="evenodd" clip-rule="evenodd" d="M68.522 11.12h3.826V7.293h-3.826v3.827Z" fill="#F55"/><path fill-rule="evenodd" clip-rule="evenodd" d="M68.522 14.946h3.826V11.12h-3.826v3.826ZM68.522 18.773h3.826v-3.826h-3.826v3.826Z" fill="#F55"/><path fill-rule="evenodd" clip-rule="evenodd" d="M68.522 26.426h3.826v-3.827h-3.826v3.827ZM68.522 37.906h3.826V34.08h-3.826v3.826ZM68.522 41.733h3.826v-3.826h-3.826v3.826ZM68.522 53.214h3.826v-3.827h-3.826v3.827Z" fill="#000"/><path fill-rule="evenodd" clip-rule="evenodd" d="M68.522 57.04h3.826v-3.827h-3.826v3.827ZM68.522 72.347h3.826V68.52h-3.826v3.827ZM72.348 3.466h3.826V-.361h-3.826v3.827ZM72.348 26.426h3.826v-3.827h-3.826v3.827ZM72.348 41.733h3.826v-3.826h-3.826v3.826ZM72.348 45.56h3.826v-3.827h-3.826v3.827ZM72.348 57.04h3.826v-3.827h-3.826v3.827ZM72.348 68.52h3.826v-3.827h-3.826v3.826ZM76.174 3.466H80V-.361h-3.826v3.827ZM76.174 7.294H80V3.467h-3.826v3.827Z" fill="#000"/><path fill-rule="evenodd" clip-rule="evenodd" d="M76.174 11.12H80V7.293h-3.826v3.827Z" fill="#000"/><path fill-rule="evenodd" clip-rule="evenodd" d="M76.174 14.946H80V11.12h-3.826v3.826ZM76.174 18.773H80v-3.826h-3.826v3.826ZM76.174 22.6H80v-3.827h-3.826V22.6Z" fill="#000"/><path fill-rule="evenodd" clip-rule="evenodd" d="M76.174 26.426H80v-3.827h-3.826v3.827ZM76.174 34.08H80v-3.827h-3.826v3.827ZM76.174 45.56H80v-3.827h-3.826v3.827ZM76.174 49.387H80V45.56h-3.826v3.827ZM76.174 60.866H80V57.04h-3.826v3.827ZM76.174 68.52H80v-3.827h-3.826v3.826ZM76.174 80H80v-3.827h-3.826V80Z" fill="#000"/></g><defs><clipPath id="a"><path fill="#fff" d="M0 0h80v80H0z"/></clipPath></defs></svg>