<svg width="237" height="200" fill="none" xmlns="http://www.w3.org/2000/svg"><path d="m237 161.206-46.506 19.598h-51.406L95.082 200l-11.701-58.794 44.005-19.196 50.307.302 47.606-19.9L237 161.206Z" fill="url(#a)"/><path d="m138.587 174.372-7.2-35.98M189.694 175.276l-7.1-36.382" stroke="#FFEE80" stroke-width="4" stroke-miterlimit="10"/><path d="M174.092 70.151c-3.5.503-8.601 6.834-18.102 20.1-5.601 7.84-6.101 17.89-.5 25.327 5.901 7.839 13.602 7.94 17.702 8.543 10.502 4.12 17.703 3.919 20.003.502 2.3-3.417-8.101-9.145-8.101-9.145s11.601 3.517 14.802-2.513c2.3-4.422-3.201-7.236-9.301-9.146-1.101-.402-1.201-2.01-.1-2.412 4.5-1.708 11.601-3.216 11.201-6.834-.5-4.322-2.2-6.231-16.902-5.93-3.101.101-8.601-1.105-7.401-5.628 1.5-4.924 2-13.668-3.301-12.864Z" fill="url(#b)"/><path d="M166.992 136.583c15.189 0 27.503-12.374 27.503-27.638 0-15.264-12.314-27.638-27.503-27.638-15.19 0-27.504 12.374-27.504 27.638 0 15.264 12.314 27.638 27.504 27.638Z" fill="url(#c)"/><path d="M168.53 130.2c11.679-.851 20.46-11.056 19.613-22.793-.847-11.736-11.002-20.56-22.681-19.71-11.679.852-20.461 11.056-19.614 22.793.847 11.737 11.002 20.561 22.682 19.71Z" fill="#fff"/><path d="M179.291 117.488c-1.1 2.914 2.601 6.834 8.201 8.944 5.601 2.01 8.401.201 9.402-2.713 1.1-2.915 0-5.628-5.601-7.739-5.601-2.11-11.002-1.407-12.002 1.508Z" fill="url(#d)"/><path d="M181.394 99.598c.9 3.719 7.101 5.226 13.901 3.618 6.801-1.708 8.902-5.427 7.901-9.045-1-3.618-4.5-5.93-11.301-4.22-6.701 1.607-11.501 5.929-10.501 9.647Z" fill="url(#e)"/><path d="M180.493 110.251c-.1 4.02 5.801 7.437 13.202 7.739 7.401.201 10.601-2.915 10.701-6.935.1-4.02-2.9-7.336-10.301-7.638-7.401-.301-13.502 2.814-13.602 6.834Z" fill="url(#f)"/><path d="m176.892 91.659-17.203 12.864 13.702 8.442 3.501-21.306Z" fill="#F95146"/><path d="m156.189 125.729 17.203-12.865-13.602-8.341-3.601 21.206Z" fill="#4399F7"/><path d="M130.286 158.392c-15.102 15.176-48.206 6.432-73.91-19.397C30.674 113.166 22.073 79.9 37.075 64.724c15.002-15.176 48.206-6.432 73.91 19.397 25.703 25.829 34.404 59.095 19.302 74.271Z" fill="url(#g)"/><path d="M93.182 99.598c9.445 0 17.102-7.694 17.102-17.186 0-9.491-7.657-17.186-17.102-17.186S76.08 72.921 76.08 82.412c0 9.492 7.657 17.186 17.102 17.186Z" fill="url(#h)"/><path d="M86.38 67.437c1.201-1.206 2.701-1.91 4.401-2.11.1 0 .3 0 .4-.1 5.001-.604 10.202 1.004 14.102 4.924a17.098 17.098 0 0 1 4.901 14.17c-.2 1.91-.9 3.518-2.1 4.825-4.001 4.02-12.102 2.412-18.103-3.618-6-5.93-7.6-14.07-3.6-18.09Z" fill="#18123D"/><path d="M63.98 105.628c9.444 0 17.101-7.694 17.101-17.186 0-9.491-7.657-17.186-17.102-17.186s-17.102 7.695-17.102 17.186c0 9.492 7.657 17.186 17.102 17.186Z" fill="url(#i)"/><path d="M57.176 73.467c1.2-1.206 2.7-1.91 4.4-2.11.1 0 .3 0 .4-.1 5.001-.604 10.202 1.004 14.102 4.924 3.9 3.92 5.5 9.146 4.9 14.17-.2 1.91-.9 3.518-2.1 4.825-4 4.02-12.101 2.412-18.102-3.618-6-5.93-7.6-14.07-3.6-18.09Z" fill="#18123D"/><path d="M37.375 183.819c-19.803 11.859-17.402 1.005-13.202-3.92.8-.904-7.8 18.995-12.701 14.171-4.901-4.824 4.2-20.502 4.2-20.502-7.9 12.261-12.802 12.562-14.302 10.05-1.5-2.513 1.4-10.955 11.602-25.528 1.9-2.713 2.9-5.125 0-7.638-4-3.518-6.301-8.945-5.6-11.055 1.1-3.618 13-1.307 29.003 4.723 9.4 3.518 14.602 12.563 15.402 19.598 1.2 10.654-12.702 19.297-14.402 20.101Z" fill="url(#j)"/><path d="M37.372 183.819c-5.2 4.422-19.402 13.769-22.503 9.447-2-2.915 4.701-11.156 10.202-14.573 7.7-5.025 16.802-.402 12.301 5.126Z" fill="url(#k)"/><path d="M14.17 151.658c-6.4-5.427-8.4-11.055-7.3-13.166 2.7-4.824 13.802-.201 29.504 5.628 28.703 12.563-14.502 38.895-22.203 7.538Z" fill="url(#l)"/><path d="M166.69 35.478c-.2 20.402-24.103 34.271-32.104 51.859-.8 1.809-3.3 1.709-4 0-7.701-17.89-31.504-31.86-31.404-52.362C99.382 12.965 114.584-.1 133.186 0c18.603.101 33.604 14.272 33.504 35.478Z" fill="#FF6257"/><path d="M122.686 31.357c-3.8-18.693 22.803-19.196 22.103-3.015-.4 9.146-12.702 9.95-12.101 18.794M133.086 60.302c1.105 0 2-.9 2-2.01 0-1.11-.895-2.01-2-2.01s-2 .9-2 2.01c0 1.11.895 2.01 2 2.01Z" stroke="#fff" stroke-width="4" stroke-miterlimit="10" stroke-linecap="round" stroke-linejoin="round"/><path d="M2.47 82.915c-.4-5.528.5-12.764 4.1-19.8M17.572 96.483c-3.2-12.362-1.8-29.448 8.7-39.8" stroke="#4399F7" stroke-width="4" stroke-miterlimit="10" stroke-linecap="round" stroke-linejoin="round"/><defs><linearGradient id="a" x1="88.247" y1="165.656" x2="232.186" y2="136.972" gradientUnits="userSpaceOnUse"><stop stop-color="#FFC233"/><stop offset=".705" stop-color="#FFD756"/><stop offset="1" stop-color="#FFE066"/></linearGradient><linearGradient id="b" x1="162.16" y1="122.788" x2="193.906" y2="82.941" gradientUnits="userSpaceOnUse"><stop stop-color="#3FB34B"/><stop offset=".152" stop-color="#4FBE59"/><stop offset=".503" stop-color="#6FD474"/><stop offset=".799" stop-color="#83E184"/><stop offset="1" stop-color="#8AE68A"/></linearGradient><linearGradient id="c" x1="147.133" y1="128.986" x2="187.623" y2="88.385" gradientUnits="userSpaceOnUse"><stop offset=".026" stop-color="#308AF2"/><stop offset="1" stop-color="#56A8FC"/></linearGradient><linearGradient id="d" x1="185.337" y1="126.405" x2="190.823" y2="114.233" gradientUnits="userSpaceOnUse"><stop stop-color="#3FB34B"/><stop offset=".152" stop-color="#4FBE59"/><stop offset=".503" stop-color="#6FD474"/><stop offset=".799" stop-color="#83E184"/><stop offset="1" stop-color="#8AE68A"/></linearGradient><linearGradient id="e" x1="192.785" y1="106.208" x2="191.646" y2="89.208" gradientUnits="userSpaceOnUse"><stop stop-color="#3FB34B"/><stop offset=".152" stop-color="#4FBE59"/><stop offset=".503" stop-color="#6FD474"/><stop offset=".799" stop-color="#83E184"/><stop offset="1" stop-color="#8AE68A"/></linearGradient><linearGradient id="f" x1="190.241" y1="120.162" x2="194.038" y2="102.491" gradientUnits="userSpaceOnUse"><stop stop-color="#3FB34B"/><stop offset=".152" stop-color="#4FBE59"/><stop offset=".503" stop-color="#6FD474"/><stop offset=".799" stop-color="#83E184"/><stop offset="1" stop-color="#8AE68A"/></linearGradient><linearGradient id="j" x1="5.986" y1="143.206" x2="38.003" y2="186.067" gradientUnits="userSpaceOnUse"><stop offset=".166" stop-color="#8AE68A"/><stop offset=".54" stop-color="#67CE6C"/><stop offset="1" stop-color="#3FB34B"/></linearGradient><linearGradient id="k" x1="18.136" y1="178.698" x2="32.57" y2="191.372" gradientUnits="userSpaceOnUse"><stop stop-color="#8AE68A"/><stop offset=".054" stop-color="#82E184"/><stop offset=".298" stop-color="#65CD6B"/><stop offset=".541" stop-color="#50BF59"/><stop offset=".777" stop-color="#43B64F"/><stop offset="1" stop-color="#3FB34B"/></linearGradient><linearGradient id="l" x1="23.297" y1="123.885" x2="30.922" y2="180.264" gradientUnits="userSpaceOnUse"><stop stop-color="#8AE68A"/><stop offset=".188" stop-color="#83E184"/><stop offset=".465" stop-color="#6FD474"/><stop offset=".793" stop-color="#4FBE59"/><stop offset=".936" stop-color="#3FB34B"/></linearGradient><radialGradient id="g" cx="0" cy="0" r="1" gradientUnits="userSpaceOnUse" gradientTransform="matrix(-58.97067 -59.83118 38.31981 -37.76868 83.968 96.946)"><stop stop-color="#8AE68A"/><stop offset=".201" stop-color="#83E184"/><stop offset=".496" stop-color="#6FD474"/><stop offset=".848" stop-color="#4FBE59"/><stop offset="1" stop-color="#3FB34B"/></radialGradient><radialGradient id="h" cx="0" cy="0" r="1" gradientUnits="userSpaceOnUse" gradientTransform="matrix(17.119 0 0 17.2028 93.222 82.387)"><stop offset=".588" stop-color="#fff"/><stop offset=".723" stop-color="#FBFCFE"/><stop offset=".859" stop-color="#EFF5F9"/><stop offset=".996" stop-color="#DBE7F2"/><stop offset="1" stop-color="#DAE7F2"/></radialGradient><radialGradient id="i" cx="0" cy="0" r="1" gradientUnits="userSpaceOnUse" gradientTransform="matrix(17.119 0 0 17.2028 63.977 88.417)"><stop offset=".588" stop-color="#fff"/><stop offset=".723" stop-color="#FBFCFE"/><stop offset=".859" stop-color="#EFF5F9"/><stop offset=".996" stop-color="#DBE7F2"/><stop offset="1" stop-color="#DAE7F2"/></radialGradient></defs></svg>