<svg width="43" height="53" fill="none" xmlns="http://www.w3.org/2000/svg"><path d="M16.723 9.518S13.756 4.621.446 4.239A.435.435 0 0 0 0 4.682c.012 1.187.377 4.39 3.821 5.747.054.021.08.083.059.138-.25.616-1.36 3.936 3.36 4.62a.104.104 0 0 1 .088.114c-.066.61-.204 3.828 4.215 4.347 4.885.573 6.94 2.797 6.94 2.797l-1.76-12.927Z" fill="url(#a)"/><path d="M16.723 9.518S13.756 4.621.446 4.239a.43.43 0 0 0-.338.152c6.75.564 10.314 2.372 12.058 3.681a4.273 4.273 0 0 1 1.662 2.843l1.303 9.567c2.324.853 3.352 1.962 3.352 1.962l-1.76-12.926Z" fill="url(#b)"/><path d="M25.434 9.518S28.4 4.621 41.71 4.239a.435.435 0 0 1 .446.443c-.012 1.187-.377 4.39-3.82 5.747a.105.105 0 0 0-.06.138c.25.616 1.361 3.936-3.36 4.62a.104.104 0 0 0-.088.114c.067.61.204 3.828-4.214 4.347-4.885.573-6.94 2.797-6.94 2.797l1.76-12.927Z" fill="url(#c)"/><path d="M38.335 10.43c3.444-1.357 3.809-4.561 3.821-5.748a.435.435 0 0 0-.446-.443c-.97.028-1.883.08-2.745.153a.436.436 0 0 1 .107.29c-.013 1.187-.378 4.39-3.822 5.747a.105.105 0 0 0-.058.138c.25.616 1.36 3.936-3.36 4.62a.104.104 0 0 0-.088.114c.066.61.204 3.828-4.215 4.347-1.434.168-2.622.479-3.588.834l-.267 1.963s2.055-2.224 6.94-2.797c4.418-.52 4.28-3.737 4.214-4.347a.104.104 0 0 1 .089-.114c4.72-.683 3.61-4.004 3.36-4.62a.105.105 0 0 1 .058-.138Z" fill="url(#d)"/><path d="M26.501 10.976v6.431c0 1.97-.325 3.925-.962 5.785a17.868 17.868 0 0 0-.961 5.785v3.721H17.58v-3.721c0-1.97-.325-3.925-.962-5.785a17.866 17.866 0 0 1-.962-5.785v-6.431c0-1.956 1.56-3.541 3.483-3.541h3.88c1.923 0 3.482 1.585 3.482 3.54Z" fill="url(#e)"/><path d="M23.018 7.435h-3.087c1.923 0 3.483 1.585 3.483 3.54v6.432c0 1.97-.325 3.925-.962 5.785a17.868 17.868 0 0 0-.962 5.785v3.721h3.088v-3.721c0-1.97.325-3.925.961-5.785.637-1.86.962-3.816.962-5.785v-6.431c0-1.956-1.56-3.541-3.483-3.541ZM19.49 4.9h3.087v2.533h-3.088V4.9Z" fill="#FFC736"/><path d="M21.078 5.501c-1.42 0-2.573-1.171-2.573-2.616V2.01c0-1.11.886-2.01 1.978-2.01h1.19c1.093 0 1.978.9 1.978 2.01v.875c0 1.445-1.152 2.616-2.573 2.616Z" fill="url(#f)"/><path d="M21.674 0h-1.192a1.94 1.94 0 0 0-.69.129 2.008 2.008 0 0 1 1.286 1.881v.875c0 .968-.518 1.813-1.286 2.265.378.223.817.351 1.286.351 1.42 0 2.573-1.171 2.573-2.616V2.01C23.65.9 22.766 0 21.674 0Z" fill="#FFC736"/><path d="m22.609 10.644 1.38 2.845c.25.512.73.867 1.286.95l3.088.455c1.4.207 1.959 1.956.946 2.96l-2.235 2.214a1.753 1.753 0 0 0-.49 1.536l.527 3.127c.239 1.417-1.224 2.498-2.476 1.829l-2.763-1.477a1.682 1.682 0 0 0-1.588 0l-2.762 1.477c-1.252.669-2.715-.412-2.476-1.829l.528-3.127a1.753 1.753 0 0 0-.491-1.536l-2.235-2.214c-1.013-1.004-.454-2.753.946-2.96l3.088-.456a1.708 1.708 0 0 0 1.285-.949l1.381-2.845a1.694 1.694 0 0 1 3.06 0Z" fill="url(#g)"/><path d="M29.308 17.854c1.013-1.004.454-2.753-.945-2.96l-3.089-.456a1.709 1.709 0 0 1-1.285-.949l-1.38-2.845a1.694 1.694 0 0 0-3.061 0l-.213.438c.07.092.132.192.186.302l1.381 2.846c.249.512.73.867 1.285.949l.613.09c2.412.357 3.375 3.37 1.63 5.1l-.444.44a1.753 1.753 0 0 0-.49 1.535l.527 3.128c.044.263.03.514-.03.745l.641.343c1.252.67 2.715-.412 2.476-1.829l-.527-3.127a1.753 1.753 0 0 1 .49-1.536l2.235-2.215Z" fill="url(#h)"/><path d="M30.443 35.957h-18.73v-2.323c0-1.182.943-2.14 2.105-2.14h14.52c1.163 0 2.105.958 2.105 2.14v2.323Z" fill="url(#i)"/><path d="M28.338 31.494h-3.087c1.163 0 2.105.958 2.105 2.14v2.323h3.087v-2.323c0-1.182-.942-2.14-2.105-2.14Z" fill="#FAAA0A"/><path d="M32.913 50.431H9.243v-15.17c0-.232.184-.42.412-.42H32.5c.227 0 .412.188.412.42v15.17Z" fill="url(#j)"/><path d="M29.825 34.842v15.59h3.088V35.26a.415.415 0 0 0-.412-.418h-2.676Z" fill="url(#k)"/><path d="M12.331 43.63v-3.558c0-1.156.922-2.093 2.058-2.093h13.379c1.137 0 2.058.937 2.058 2.093v3.557c0 1.156-.921 2.093-2.058 2.093H14.389c-1.136 0-2.058-.937-2.058-2.093Z" fill="url(#l)"/><path d="M27.767 37.98H24.68c1.136 0 2.058.936 2.058 2.092v3.557c0 1.156-.922 2.093-2.058 2.093h3.087c1.137 0 2.058-.937 2.058-2.093v-3.557c0-1.156-.921-2.093-2.058-2.093Z" fill="#8AEEFF"/><path d="M34.971 52.001H7.185c-.852 0-1.543-.702-1.543-1.57 0-.866.69-1.569 1.543-1.569h27.786c.853 0 1.544.703 1.544 1.57 0 .867-.691 1.57-1.544 1.57Z" fill="url(#m)"/><path d="M34.971 48.862h-3.087c.852 0 1.544.703 1.544 1.57 0 .866-.692 1.57-1.544 1.57h3.087c.853 0 1.544-.703 1.544-1.57 0-.867-.691-1.57-1.544-1.57Z" fill="url(#n)"/><defs><linearGradient id="a" x1="1.069" y1="-2.986" x2="45.857" y2="14.929" gradientUnits="userSpaceOnUse"><stop stop-color="#FFD945"/><stop offset=".304" stop-color="#FFCD3E"/><stop offset=".856" stop-color="#FFAD2B"/><stop offset="1" stop-color="#FFA325"/></linearGradient><linearGradient id="b" x1="9.38" y1="-12.499" x2="9.999" y2="13.501" gradientUnits="userSpaceOnUse"><stop stop-color="#FFD945"/><stop offset=".304" stop-color="#FFCD3E"/><stop offset=".856" stop-color="#FFAD2B"/><stop offset="1" stop-color="#FFA325"/></linearGradient><linearGradient id="c" x1="24.743" y1="-2.986" x2="69.531" y2="14.929" gradientUnits="userSpaceOnUse"><stop stop-color="#FFD945"/><stop offset=".304" stop-color="#FFCD3E"/><stop offset=".856" stop-color="#FFAD2B"/><stop offset="1" stop-color="#FFA325"/></linearGradient><linearGradient id="d" x1="33" y1="-12.499" x2="33" y2="25.001" gradientUnits="userSpaceOnUse"><stop stop-color="#FFD945"/><stop offset=".304" stop-color="#FFCD3E"/><stop offset=".856" stop-color="#FFAD2B"/><stop offset="1" stop-color="#FFA325"/></linearGradient><linearGradient id="e" x1="21.079" y1="5.693" x2="21.079" y2="38.346" gradientUnits="userSpaceOnUse"><stop stop-color="#FFD945"/><stop offset=".304" stop-color="#FFCD3E"/><stop offset=".856" stop-color="#FFAD2B"/><stop offset="1" stop-color="#FFA325"/></linearGradient><linearGradient id="f" x1="18.803" y1="-2.183" x2="29.425" y2="-3.953" gradientUnits="userSpaceOnUse"><stop stop-color="#FFD945"/><stop offset=".21" stop-color="#FFCD3E"/><stop offset=".856" stop-color="#FFAD2B"/><stop offset="1" stop-color="#FFA325"/></linearGradient><linearGradient id="g" x1="20.718" y1="17.137" x2="30.574" y2="22.53" gradientUnits="userSpaceOnUse"><stop stop-color="#FF7044"/><stop offset="1" stop-color="#F82814"/></linearGradient><linearGradient id="h" x1="20.5" y1="19.499" x2="23.346" y2="11.066" gradientUnits="userSpaceOnUse"><stop stop-color="#FF7044" stop-opacity="0"/><stop offset="1" stop-color="#FFA325"/></linearGradient><linearGradient id="i" x1="21.078" y1="31.186" x2="21.078" y2="36.955" gradientUnits="userSpaceOnUse"><stop stop-color="#FFD945"/><stop offset=".304" stop-color="#FFCD3E"/><stop offset=".856" stop-color="#FFAD2B"/><stop offset="1" stop-color="#FFA325"/></linearGradient><linearGradient id="j" x1="4.447" y1="29.333" x2="28.625" y2="66.042" gradientUnits="userSpaceOnUse"><stop stop-color="#00ADFB"/><stop offset="1" stop-color="#3F3CED"/></linearGradient><linearGradient id="k" x1="28.6" y1="35.744" x2="46.184" y2="44.582" gradientUnits="userSpaceOnUse"><stop stop-color="#00ADFB"/><stop offset="1" stop-color="#3F3CED"/></linearGradient><linearGradient id="l" x1="29.5" y1="38.499" x2="12.5" y2="44.999" gradientUnits="userSpaceOnUse"><stop stop-color="#B9F5FF"/><stop offset="1" stop-color="#6DEAFF"/></linearGradient><linearGradient id="m" x1="20.443" y1="50.233" x2="21.232" y2="54.382" gradientUnits="userSpaceOnUse"><stop stop-color="#FF7044"/><stop offset="1" stop-color="#F82814"/></linearGradient><linearGradient id="n" x1="33" y1="54.501" x2="31.288" y2="50.736" gradientUnits="userSpaceOnUse"><stop stop-color="#FF7044" stop-opacity="0"/><stop offset="1" stop-color="#FFA325"/></linearGradient></defs></svg>