<svg width="220" height="193" fill="none" xmlns="http://www.w3.org/2000/svg"><path d="m153.11 169.988 27.958 11.483c5.751 2.396 11.402-.399 12.492-6.191l23.2-114.127c1.388-6.89-3.371-11.583-10.708-10.484l-30.833 4.693c-4.362.699-7.733 3.794-8.625 7.888l-20.027 95.056c-.892 4.893 1.784 9.785 6.543 11.682Z" stroke="#FF6757" stroke-width="5" stroke-linecap="round" stroke-linejoin="round" stroke-dasharray="7.89 7.89"/><path d="M2.315 178.176c4.758 3.296 15.664-5.791 18.54-8.587-9.221 10.285-8.23 14.878-5.553 15.777 2.776.798 10.41-4.094 22.01-17.674 2.181-2.496 4.263-4.093 7.436-1.897 4.461 3.096 10.31 5.392 13.384 2.696 2.875-2.496-3.073-13.08-12.889-27.359-5.75-8.387-13.979-12.68-23.794-8.187-9.815 4.493-18.936 19.67-19.828 34.148-.199 2.996.099 4.693.595 5.592-1.388 2.196-1.686 4.193.099 5.491Z" fill="url(#a)"/><path d="M12.922 159.105c-5.056 5.791-15.466 15.976-10.707 19.071 4.065 2.596 14.475-4.193 19.234-9.386 5.85-6.39-2.975-16.075-8.527-9.685Z" fill="url(#b)"/><path d="M133.281 157.208c-14.97 15.077-47.787 6.39-73.266-19.271-25.48-25.661-34.105-58.711-19.135-73.789 14.97-15.077 47.787-6.39 73.267 19.271 25.479 25.662 34.105 58.812 19.134 73.789Z" fill="url(#c)"/><path d="M96.797 99.295c9.363 0 16.954-7.644 16.954-17.074 0-9.43-7.591-17.074-16.954-17.074s-16.953 7.644-16.953 17.074c0 9.43 7.59 17.074 16.953 17.074Z" fill="url(#d)"/><path d="M89.957 96.999c1.19 1.198 2.677 1.897 4.362 2.097.1 0 .298 0 .397.1 4.957.599 10.113-.999 13.979-4.893 3.867-3.894 5.453-9.086 4.858-14.079-.198-1.897-.892-3.495-2.082-4.793-3.966-3.993-11.996-2.396-17.945 3.595-5.85 5.991-7.534 13.979-3.569 17.973Z" fill="#18123D"/><path d="M45.738 82.121c0 9.386 7.634 17.074 16.954 17.074 9.319 0 16.953-7.688 16.953-17.074H45.738Z" fill="url(#e)"/><path d="M65.27 82.121h14.376c0 4.394-1.686 8.787-4.957 12.082-4.56 4.593-11.104 5.991-16.854 4.293-.298-.1-.595-.3-.893-.499-2.082-2.097 1.09-8.587 7.04-14.578.396-.5.892-.898 1.288-1.298Z" fill="#18123D"/><path d="M84.901 141.731c2.875-4.093 21.415 5.492 33.312 13.979 0 0 11.699-10.284 18.539-6.29 4.065 2.396-2.28 9.885-8.129 23.365-3.074 7.089-6.246 14.178-11.6 17.273-5.354 3.096-12.492 3.295-19.928-3.195-12.392-11.083-7.435-16.974-3.569-17.274-2.38-3.794-1.388-9.785 1.686-10.384-7.238-6.69-12.492-14.378-10.311-17.474Z" fill="url(#f)"/><path d="m2.314 77.528 14.277.7M23.53 56.36 7.965 43.879M42.666 43.78 39.892 30.3" stroke="#4399F7" stroke-width="4" stroke-miterlimit="10" stroke-linecap="round" stroke-linejoin="round"/><path d="M154.995 85.017c23.271 0 42.135-19 42.135-42.436 0-23.437-18.864-42.436-42.135-42.436-23.271 0-42.136 19-42.136 42.436 0 23.437 18.865 42.436 42.136 42.436Z" fill="url(#g)"/><path d="M142.7 34.393c-4.362-21.567 26.174-22.066 25.282-3.395-.496 10.584-14.574 11.383-13.88 21.668M154.597 67.643a2.288 2.288 0 0 0 2.28-2.297 2.288 2.288 0 0 0-2.28-2.296 2.289 2.289 0 0 0-2.281 2.296 2.289 2.289 0 0 0 2.281 2.297Z" stroke="#000" stroke-width="4" stroke-miterlimit="10" stroke-linecap="round" stroke-linejoin="round"/><defs><linearGradient id="a" x1="28.563" y1="181.331" x2="34.092" y2="131.402" gradientUnits="userSpaceOnUse"><stop stop-color="#3FB34B"/><stop offset=".152" stop-color="#4FBE59"/><stop offset=".503" stop-color="#6FD474"/><stop offset=".799" stop-color="#83E184"/><stop offset="1" stop-color="#8AE68A"/></linearGradient><linearGradient id="b" x1="7.276" y1="152.966" x2="16.604" y2="184.284" gradientUnits="userSpaceOnUse"><stop stop-color="#8AE68A"/><stop offset=".074" stop-color="#82E184"/><stop offset=".472" stop-color="#5EC865"/><stop offset=".795" stop-color="#47B952"/><stop offset="1" stop-color="#3FB34B"/></linearGradient><linearGradient id="f" x1="104.471" y1="194.615" x2="112.727" y2="138.107" gradientUnits="userSpaceOnUse"><stop stop-color="#3FB34B"/><stop offset=".152" stop-color="#4FBE59"/><stop offset=".503" stop-color="#6FD474"/><stop offset=".799" stop-color="#83E184"/><stop offset="1" stop-color="#8AE68A"/></linearGradient><linearGradient id="g" x1="154.976" y1="5.851" x2="154.976" y2="75.669" gradientUnits="userSpaceOnUse"><stop stop-color="#FFC433"/><stop offset="1" stop-color="#FFD44D"/></linearGradient><radialGradient id="c" cx="0" cy="0" r="1" gradientUnits="userSpaceOnUse" gradientTransform="rotate(-134.521 63.816 29.826) scale(83.3708 53.3943)"><stop stop-color="#8AE68A"/><stop offset=".201" stop-color="#83E184"/><stop offset=".496" stop-color="#6FD474"/><stop offset=".848" stop-color="#4FBE59"/><stop offset="1" stop-color="#3FB34B"/></radialGradient><radialGradient id="d" cx="0" cy="0" r="1" gradientUnits="userSpaceOnUse" gradientTransform="matrix(16.9701 0 0 17.091 96.75 82.197)"><stop offset=".588" stop-color="#fff"/><stop offset=".723" stop-color="#FBFCFE"/><stop offset=".859" stop-color="#EFF5F9"/><stop offset=".996" stop-color="#DBE7F2"/><stop offset="1" stop-color="#DAE7F2"/></radialGradient><radialGradient id="e" cx="0" cy="0" r="1" gradientUnits="userSpaceOnUse" gradientTransform="matrix(16.9632 0 0 17.0841 62.628 82.12)"><stop offset=".588" stop-color="#fff"/><stop offset=".723" stop-color="#FBFCFE"/><stop offset=".859" stop-color="#EFF5F9"/><stop offset=".996" stop-color="#DBE7F2"/><stop offset="1" stop-color="#DAE7F2"/></radialGradient></defs></svg>