<svg width="121" height="155" fill="none" xmlns="http://www.w3.org/2000/svg"><path d="M39.729 64.775c2.054-5.129 7.142-9.663 13.445-6.8 18.505 8.397 46.288 21.704 58.966 31.304 2.686 2.03 3.864 5.702 2.67 8.844" fill="#fff"/><path d="M39.729 64.775c2.054-5.129 7.142-9.663 13.445-6.8 18.505 8.397 46.288 21.704 58.966 31.304 2.686 2.03 3.864 5.702 2.67 8.844" stroke="#231F20" stroke-width="2" stroke-linecap="round" stroke-linejoin="round"/><path d="M96.612 36.32c-10.167-3.643-22.44 3.449-28.05 15.613C62.95 64.097 65.54 78 74.933 83.323c1.34.758 7.122 3.32 8.485 3.67 9.542 2.443 20.953-3.904 26.566-16.074 5.613-12.17 2.926-25.374-5.474-30.85-1.039-.678-6.451-3.23-7.899-3.748Z" fill="#FFD601" stroke="#231F20" stroke-width="2" stroke-miterlimit="10"/><path d="M95.816 36.19c10.839 3.717 15.067 18.202 8.565 32.054-6.502 13.852-20.447 20.069-30.344 14.344" stroke="#231F20" stroke-width="2" stroke-linecap="round" stroke-linejoin="round"/><path d="m74.662 73.738 13.815-29.624c16.667 5.016 7.423 23.374-3.35 19.66-3.656-1.262-8.776-3.831-8.776-3.831m6.294 10.997-8.806-3.728" stroke="#231F20" stroke-width="2" stroke-linecap="round" stroke-linejoin="round"/><path d="M98.302 143.501c-3.369 7.62-8.513 9.696-19.592 7.998-16.367-2.515-49.84-12.607-61.507-19.743-8.635-5.285-9.295-11.763-6.735-18.439 0 0 10.724-28.646 15.048-39.414s8.763-11.053 17.815-7.427c9.052 3.626 44.901 18.574 68.523 25.715a5.09 5.09 0 0 1 2.87 6.54s-11.477 33.602-16.418 44.779l-.004-.009Z" fill="#fff" stroke="#231F20" stroke-width="2" stroke-linecap="round" stroke-linejoin="round"/><path d="M97.567 144.376c-11.787 2.427-56.371-9.017-73.109-18.612-4.944-1.883-7.458-7.205-4.881-14.333s12.188-31.539 12.188-31.539c1.858-4.851 6.13-6.856 11.075-4.973 19.779 9.468 47.048 20.251 70.101 25.763" stroke="#231F20" stroke-width="2" stroke-linecap="round" stroke-linejoin="round" stroke-dasharray="6 8"/><path d="M8.771 94.155c.874-2.834 2.59-7.76 4.5-12.834 1.91-5.073 5.36-5.694 10.895-4.025L21.6 84.092s13.647 5.264 19.409 9.241c5.762 3.977 7.142 11.512 5.567 16.766-1.575 5.253-6.733 8.999-13.4 3.612-6.668-5.387-15.69-8.071-18.356-9.702-2.666-1.631-7.732-4.41-6.05-9.854Z" fill="#fff" stroke="#231F20" stroke-width="2" stroke-linecap="round" stroke-linejoin="round"/><path d="M37.31 109.766c2.458-.23 4.201-3.154 3.894-6.531-.308-3.376-2.55-5.927-5.008-5.697-2.458.23-4.202 3.154-3.894 6.53.307 3.377 2.55 5.928 5.008 5.698ZM19.145 76.523c-5.018.884-3.61 5.247 2.336 7.592" stroke="#231F20" stroke-width="2" stroke-linecap="round" stroke-linejoin="round"/><path d="M39.57 4.805c-7.794 3.604-10.776 14.455-7.147 24.462 3.628 10.008 12.87 16.427 21.163 14.2 1.18-.32 5.89-2.094 6.856-2.653 6.766-3.935 9.68-13.887 6.05-23.898C62.862 6.904 53.953.934 46.135 2.519c-.965.194-5.456 1.77-6.567 2.282l.001.004Z" fill="#fff" stroke="#231F20" stroke-width="2" stroke-miterlimit="10"/><path d="M38.834 5.238c8.262-3.936 18.872 1.906 23.027 13.366 4.155 11.46-.246 22.745-9.11 25.018" fill="#fff"/><path d="M38.834 5.238c8.262-3.936 18.872 1.906 23.027 13.366 4.155 11.46-.246 22.745-9.11 25.018" stroke="#231F20" stroke-width="2" stroke-linecap="round" stroke-linejoin="round"/><path d="M51.253 34.082 43.68 13.194 41.06 23.52" fill="#fff"/><path d="M51.253 34.082 43.68 13.194 41.06 23.52" stroke="#231F20" stroke-width="2" stroke-linecap="round" stroke-linejoin="round"/></svg>