<svg width="191" height="167" fill="none" xmlns="http://www.w3.org/2000/svg"><path d="M154.76 131.128c21.507 8.727 17.386-1.623 12.462-5.986-.905-.812 10.552 17.655 14.773 12.176 4.121-5.581-7.236-19.787-7.236-19.787 9.749 10.959 14.673 10.553 15.678 7.814 1.106-2.639-3.015-10.756-15.376-23.643-2.312-2.435-3.618-4.667-1.206-7.61 3.517-4.16 4.824-9.944 3.919-11.872-1.608-3.45-13.065.71-28.039 9.132-8.844 4.972-12.563 14.713-12.261 22.019.301 10.655 15.477 17.149 17.286 17.757Z" fill="url(#a)"/><path d="M154.757 131.128c5.829 3.552 21.407 10.756 23.819 5.886 1.608-3.247-6.332-10.452-12.362-12.988-8.442-3.755-16.783 2.13-11.457 7.102Z" fill="url(#b)"/><path d="M172.949 95.411c5.528-6.392 6.633-12.38 5.226-14.206-3.417-4.464-13.668 1.928-28.441 10.147-26.632 16.844 20.401 36.529 23.215 4.06Z" fill="url(#c)"/><path d="M156.618 57.157c15.542 0 28.14-12.72 28.14-28.411S172.16.334 156.618.334c-15.541 0-28.139 12.72-28.139 28.412 0 15.691 12.598 28.411 28.139 28.411Z" fill="#FF6257"/><path fill-rule="evenodd" clip-rule="evenodd" d="M158.826 13.636a1.168 1.168 0 0 1 1.341-.597l1.152.304c.534.14.893.633.858 1.176l-.072 1.104a2.26 2.26 0 0 0 .712 1.797l.381.36c2.287 1.852 3.526 4.803 3.054 7.851L165.112 33a5.076 5.076 0 0 0 .999 3.876l.418.544c.555.721.625 1.697.179 2.487l-.04.072a2.057 2.057 0 0 1-2.315.966l-20.839-5.494A2.017 2.017 0 0 1 142 33.475l.002-.081a2.284 2.284 0 0 1 1.419-2.067l.639-.265a5.183 5.183 0 0 0 2.835-2.865l2.756-6.942c1.14-2.871 3.71-4.816 6.63-5.297l.517-.124a2.315 2.315 0 0 0 1.53-1.207l.498-.99Zm3.225 18.905c-.258 1.665-.241 3.24 1.504 5.04l-17.641-4.65c2.432-.7 3.241-2.057 3.864-3.626l2.756-6.942c1.029-2.592 3.875-4.008 6.607-3.288 2.732.72 4.477 3.347 4.051 6.098l-1.141 7.368Z" fill="#fff"/><path d="M154.026 43.74c2.477.654 4.799.03 5.186-1.391.168-.618-.015-1.187-.447-1.3l-7.475-1.971c-.432-.114-.888.317-1.048.906-.387 1.422 1.307 3.104 3.784 3.757Z" fill="#fff"/><path d="M135.967 133.158c-15.176 15.322-48.44 6.494-74.27-19.584C35.87 87.497 27.127 53.911 42.302 38.589c15.176-15.322 48.441-6.495 74.269 19.583 25.829 26.078 34.572 59.664 19.397 74.986Z" fill="url(#d)"/><path d="m2 58.78 14.472-.71M21.396 35.341 4.412 24.281M39.386 20.73l-4.12-13.394" stroke="#4399F7" stroke-width="4" stroke-miterlimit="10" stroke-linecap="round" stroke-linejoin="round"/><path d="M104.51 78.06c9.491 0 17.185-7.769 17.185-17.351 0-9.583-7.694-17.352-17.185-17.352-9.492 0-17.186 7.769-17.186 17.352 0 9.582 7.694 17.351 17.186 17.351Z" fill="url(#e)"/><path d="M105.012 78.161c7.327 0 13.266-5.906 13.266-13.19 0-7.286-5.939-13.192-13.266-13.192-7.326 0-13.266 5.906-13.266 13.191 0 7.285 5.94 13.191 13.266 13.191Z" fill="#18123D"/><path d="M70.64 78.06c9.492 0 17.186-7.769 17.186-17.351 0-9.583-7.694-17.352-17.185-17.352-9.492 0-17.186 7.769-17.186 17.352 0 9.582 7.694 17.351 17.186 17.351Z" fill="url(#f)"/><path d="M71.143 78.161c7.326 0 13.266-5.906 13.266-13.19 0-7.286-5.94-13.192-13.266-13.192-7.327 0-13.266 5.906-13.266 13.191 0 7.285 5.94 13.191 13.266 13.191Z" fill="#18123D"/><path d="M43.003 154.568c-19.195 13.09-17.386 2.029-13.466-3.247.703-1.015-6.734 19.584-11.86 15.018-5.225-4.567 3.016-20.903 3.016-20.903-7.236 12.785-12.16 13.394-13.769 10.959-1.608-2.334.804-11.162 10.15-26.383 1.71-2.841 2.614-5.377-.401-7.711-4.221-3.349-6.834-8.625-6.231-10.857.904-3.653 12.964-2.03 29.346 3.044 9.647 3.044 15.275 11.77 16.582 18.873 1.809 10.756-11.658 20.395-13.367 21.207Z" fill="url(#g)"/><path d="M43.004 154.568c-4.924 4.668-18.693 15.018-22.01 10.756-2.21-2.841 4.02-11.568 9.448-15.322 7.437-5.378 16.783-1.319 12.562 4.566Z" fill="url(#h)"/><path d="M17.878 123.519c-6.733-5.175-9.045-10.655-8.04-12.786 2.412-5.073 13.769-1.014 29.949 3.958 29.446 10.958-12.462 39.979-21.91 8.828Z" fill="url(#i)"/><defs><linearGradient id="a" x1="179.647" y1="85.784" x2="154.221" y2="133.419" gradientUnits="userSpaceOnUse"><stop offset=".166" stop-color="#8AE68A"/><stop offset=".54" stop-color="#67CE6C"/><stop offset="1" stop-color="#3FB34B"/></linearGradient><linearGradient id="b" x1="172.982" y1="123.079" x2="160.509" y2="137.899" gradientUnits="userSpaceOnUse"><stop stop-color="#8AE68A"/><stop offset=".054" stop-color="#82E184"/><stop offset=".298" stop-color="#65CD6B"/><stop offset=".541" stop-color="#50BF59"/><stop offset=".777" stop-color="#43B64F"/><stop offset="1" stop-color="#3FB34B"/></linearGradient><linearGradient id="c" x1="159.509" y1="69.18" x2="160.619" y2="126.616" gradientUnits="userSpaceOnUse"><stop stop-color="#8AE68A"/><stop offset=".188" stop-color="#83E184"/><stop offset=".465" stop-color="#6FD474"/><stop offset=".793" stop-color="#4FBE59"/><stop offset=".936" stop-color="#3FB34B"/></linearGradient><linearGradient id="g" x1="9.145" y1="115.475" x2="43.904" y2="156.66" gradientUnits="userSpaceOnUse"><stop offset=".166" stop-color="#8AE68A"/><stop offset=".54" stop-color="#67CE6C"/><stop offset="1" stop-color="#3FB34B"/></linearGradient><linearGradient id="h" x1="23.359" y1="150.548" x2="38.614" y2="162.419" gradientUnits="userSpaceOnUse"><stop stop-color="#8AE68A"/><stop offset=".054" stop-color="#82E184"/><stop offset=".298" stop-color="#65CD6B"/><stop offset=".541" stop-color="#50BF59"/><stop offset=".777" stop-color="#43B64F"/><stop offset="1" stop-color="#3FB34B"/></linearGradient><linearGradient id="i" x1="25.411" y1="95" x2="36.402" y2="151.362" gradientUnits="userSpaceOnUse"><stop stop-color="#8AE68A"/><stop offset=".188" stop-color="#83E184"/><stop offset=".465" stop-color="#6FD474"/><stop offset=".793" stop-color="#4FBE59"/><stop offset=".936" stop-color="#3FB34B"/></linearGradient><radialGradient id="d" cx="0" cy="0" r="1" gradientUnits="userSpaceOnUse" gradientTransform="matrix(-59.25692 -60.40774 38.68605 -37.94904 89.287 71.131)"><stop stop-color="#8AE68A"/><stop offset=".201" stop-color="#83E184"/><stop offset=".496" stop-color="#6FD474"/><stop offset=".848" stop-color="#4FBE59"/><stop offset="1" stop-color="#3FB34B"/></radialGradient><radialGradient id="e" cx="0" cy="0" r="1" gradientUnits="userSpaceOnUse" gradientTransform="matrix(17.2023 0 0 17.3683 104.491 60.728)"><stop offset=".588" stop-color="#fff"/><stop offset=".723" stop-color="#FBFCFE"/><stop offset=".859" stop-color="#EFF5F9"/><stop offset=".996" stop-color="#DBE7F2"/><stop offset="1" stop-color="#DAE7F2"/></radialGradient><radialGradient id="f" cx="0" cy="0" r="1" gradientUnits="userSpaceOnUse" gradientTransform="matrix(17.2023 0 0 17.3683 70.601 60.728)"><stop offset=".588" stop-color="#fff"/><stop offset=".723" stop-color="#FBFCFE"/><stop offset=".859" stop-color="#EFF5F9"/><stop offset=".996" stop-color="#DBE7F2"/><stop offset="1" stop-color="#DAE7F2"/></radialGradient></defs></svg>