<svg width="133" height="135" fill="none" xmlns="http://www.w3.org/2000/svg"><path d="M1.746 95.553c4.539 3.49 52.094-9.233 53.112-15.594 1.143-7.225-33.813-36.808-39.927-34.894C8.817 47.011-2.763 92.064 1.746 95.553Z" fill="url(#a)"/><path fill-rule="evenodd" clip-rule="evenodd" d="M18.415 55.829a1.402 1.402 0 0 1 1.748.935l4.57 15.069a1.402 1.402 0 0 1-2.682.813l-4.57-15.069a1.402 1.402 0 0 1 .934-1.748ZM25.557 79.037a1.402 1.402 0 0 1 1.784.863l.988 2.841a1.402 1.402 0 0 1-2.647.921l-.989-2.84a1.402 1.402 0 0 1 .864-1.785Z" fill="#fff"/><path d="M20.427 108.029c9.758-2.934 13.186-9.882 14.699-16.212 13.31-56.818 55.768-67.966 73.03 2.223 1.513 6.176 5.991 14.05 16.181 17.694 19.361 6.948 2.594 21.091-23.283 9.665-4.015-1.76-12.445-2.964-18.127 2.378-15.779 14.73-39.525 12.63-31.435-.247 4.57-7.287-5.095-6.423-8.893-5.342-30.262 8.646-35.697-6.083-22.172-10.159Z" fill="url(#b)"/><path fill-rule="evenodd" clip-rule="evenodd" d="M68.535.585c.272.38.337.87.174 1.307l-6.637 17.79 12.567-1.515a1.402 1.402 0 0 1 1.287 2.236L54.804 48.41a1.402 1.402 0 0 1-2.502-1.07l2.803-17.21-10.45 1.772a1.402 1.402 0 0 1-1.629-1.52L45.867 1.88c.07-.7.649-1.24 1.352-1.262L67.353.001c.466-.015.91.204 1.182.584Zm-20 2.798-2.537 25.449 10.572-1.793a1.402 1.402 0 0 1 1.617 1.608L55.98 42.195l15.724-20.85-11.583 1.396a1.402 1.402 0 0 1-1.48-1.881l6.712-17.993-16.818.516Z" fill="url(#c)"/><path d="M80.55 78.88c5.832 0 10.56-4.729 10.56-10.561 0-5.833-4.728-10.56-10.56-10.56-5.834 0-10.562 4.727-10.562 10.56 0 5.832 4.728 10.56 10.561 10.56Z" fill="#fff"/><path d="M74.682 60.104a4.79 4.79 0 0 1 2.44-1.791l.277-.093c2.965-.926 6.33-.556 9.11 1.328a10.53 10.53 0 0 1 4.6 7.998c.124 1.173-.123 2.254-.74 3.15-1.946 2.871-7.041 2.84-11.364-.093-4.354-2.903-6.269-7.628-4.323-10.5Z" fill="#000"/><path d="m71.471 69.8-20.813 4.014c1.112 5.744 6.67 9.511 12.414 8.4 5.743-1.112 9.51-6.67 8.399-12.414Z" fill="#fff"/><path d="M71.471 69.83a10.966 10.966 0 0 1 0 4.015c-.185 1.142-.71 2.162-1.513 2.872-2.625 2.285-7.565.926-10.993-3.057-.34-.402-.68-.803-.957-1.236l13.463-2.593Z" fill="#000"/><path fill-rule="evenodd" clip-rule="evenodd" d="M90.853 31.014c.666.147 1.087.806.94 1.472l-2.47 11.178a1.235 1.235 0 1 1-2.413-.533l2.47-11.178a1.235 1.235 0 0 1 1.473-.94Z" fill="url(#d)"/><path fill-rule="evenodd" clip-rule="evenodd" d="M113.639 40.808c.441.52.377 1.3-.143 1.74l-12.784 10.84a1.235 1.235 0 0 1-1.598-1.885l12.784-10.838a1.235 1.235 0 0 1 1.741.143Z" fill="url(#e)"/><path fill-rule="evenodd" clip-rule="evenodd" d="M118.808 63.969a1.235 1.235 0 0 1-1.145 1.32l-10.87.771a1.235 1.235 0 0 1-.175-2.464l10.87-.772a1.236 1.236 0 0 1 1.32 1.145Z" fill="url(#f)"/><defs><linearGradient id="a" x1="43.725" y1="58.308" x2="-4.261" y2="84.966" gradientUnits="userSpaceOnUse"><stop stop-color="#FFE72E"/><stop offset="1" stop-color="#FFC700"/></linearGradient><linearGradient id="c" x1="74.875" y1="15.234" x2="42.347" y2="29.314" gradientUnits="userSpaceOnUse"><stop offset=".036" stop-color="#FF7878"/><stop offset="1" stop-color="#FF2121"/></linearGradient><linearGradient id="d" x1="90.851" y1="43.793" x2="87.907" y2="31.379" gradientUnits="userSpaceOnUse"><stop stop-color="#3A74E0"/><stop offset="1" stop-color="#70A2FF"/></linearGradient><linearGradient id="e" x1="107.493" y1="51.693" x2="105.172" y2="41.904" gradientUnits="userSpaceOnUse"><stop stop-color="#3A74E0"/><stop offset="1" stop-color="#70A2FF"/></linearGradient><linearGradient id="f" x1="112.65" y1="66.282" x2="111.677" y2="62.176" gradientUnits="userSpaceOnUse"><stop stop-color="#3A74E0"/><stop offset="1" stop-color="#70A2FF"/></linearGradient><radialGradient id="b" cx="0" cy="0" r="1" gradientUnits="userSpaceOnUse" gradientTransform="rotate(103.792 4.01 60.532) scale(61.1147 43.5149)"><stop offset=".068" stop-color="#4DF070"/><stop offset=".267" stop-color="#4AE76B"/><stop offset=".595" stop-color="#42CE5E"/><stop offset=".953" stop-color="#36AB4B"/></radialGradient></defs></svg>