<svg width="124" height="140" fill="none" xmlns="http://www.w3.org/2000/svg"><path d="M64.497 92.567c-1.13.053-1.694.08-2.179-.102a2.554 2.554 0 0 1-1.087-.793c-.322-.406-.466-.938-.755-2.003a152.984 152.984 0 0 1-3.092-66.166c.188-1.087.282-1.631.564-2.065a2.553 2.553 0 0 1 1.009-.89c.465-.227 1.03-.253 2.16-.306l31.74-1.483c1.75-.082 2.624-.123 3.231.198.543.286.943.733 1.167 1.304.251.64.11 1.527-.174 3.301a152.95 152.95 0 0 0 2.913 62.345c.448 1.74.672 2.61.482 3.27a2.472 2.472 0 0 1-1.04 1.408c-.574.376-1.449.417-3.199.499l-31.74 1.483Z" fill="#FFD601"/><path d="M66.02 88.322c-.576.027-.863.04-1.107-.052a1.269 1.269 0 0 1-.545-.4c-.16-.206-.233-.48-.376-1.03a146.833 146.833 0 0 1-2.845-60.862c.092-.56.138-.841.279-1.06.123-.192.3-.35.505-.45.234-.115.522-.128 1.096-.155l28.478-1.331c.86-.04 1.289-.06 1.592.1.269.14.472.368.583.65.126.319.058.75-.077 1.611a146.83 146.83 0 0 0 2.762 59.101c.216.845.323 1.268.228 1.597a1.247 1.247 0 0 1-.52.703c-.287.187-.717.207-1.576.247l-28.478 1.331Z" stroke="#000" stroke-width="2"/><path d="m89.705 38.395-27.391 1.19M76.927 67.45c-3.833.178-7.163-1.16-7.465-4.286-.292-3.125 2.753-4.77 6.586-4.949 3.845-.18 7.064 1.602 7.321 4.3.257 2.693-2.597 4.755-6.442 4.934Zm1.963 11.677c-3.834.179-7.284-1.144-7.837-4.24-.542-3.096 2.382-4.731 6.216-4.91 3.845-.18 7.219 1.587 7.692 4.26.473 2.67-2.227 4.71-6.071 4.89Zm3.978-24.719a140.11 140.11 0 0 1-.142-5.327l-6.312-1.477c-.025.002 3.144 5.361-1.055 8.04-3.594 2.284-10.029-2.81-5.33-9.272" stroke="#231F20" stroke-width="2" stroke-linecap="round" stroke-linejoin="round"/><path d="M54.088 127.238c-1.023.661-1.534.992-2.087 1.086-.48.082-.994.029-1.448-.148-.522-.204-.947-.624-1.8-1.463-22.076-21.747-39.887-50.736-50.62-79.854-.455-1.237-.683-1.856-.636-2.453a2.747 2.747 0 0 1 .559-1.447c.366-.474.96-.784 2.148-1.405C7.72 37.633 26.26 27.837 38.897 20.171c1.662-1.008 2.492-1.512 3.226-1.526a2.646 2.646 0 0 1 1.771.61c.57.463.914 1.373 1.603 3.192a206.938 206.938 0 0 0 47.379 73.27c1.37 1.368 2.055 2.052 2.24 2.775a2.687 2.687 0 0 1-.2 1.892c-.333.668-1.127 1.182-2.717 2.21l-38.111 24.644Z" fill="#fff"/><path d="M54.37 121.661c-.53.425-.795.637-1.09.708a1.366 1.366 0 0 1-.786-.043c-.286-.104-.525-.345-1.003-.826-19.904-20.004-37.412-47.099-47.474-73.457-.233-.611-.35-.917-.331-1.212.016-.26.109-.513.263-.722.175-.239.465-.4 1.045-.722l34.552-19.21c.766-.425 1.15-.638 1.507-.636.316.002.616.111.86.313.276.228.434.641.751 1.468 9.823 25.625 23.923 47.453 43.24 66.935.665.671.998 1.007 1.09 1.36a1.33 1.33 0 0 1-.085.928c-.156.33-.546.6-1.326 1.142-9.132 6.334-26.092 19.864-31.213 23.974Z" stroke="#000" stroke-width="2"/><path d="M45.2 81.208c-4.13 2.67-8.505 3.396-10.521.293-2.01-3.108.447-6.8 4.577-9.47 4.137-2.675 8.661-2.888 10.396-.212 1.731 2.678-.316 6.714-4.449 9.386l-.003.003Zm8.296 11.202c-4.13 2.67-8.602 3.47-10.834.515-2.221-2.96.13-6.584 4.26-9.255 4.137-2.675 8.797-2.975 10.713-.427 1.92 2.552-.002 6.492-4.136 9.165l-.003.002Zm9.077 10.615c-4.13 2.671-8.7 3.547-11.138.75-2.427-2.804-.178-6.356 3.952-9.027 4.137-2.675 8.922-3.07 11.021-.655 2.098 2.412.302 6.257-3.835 8.932ZM30.19 72.531l15.024-9.715a682.93 682.93 0 0 1-10.852-1.667m12.514-16.392L15.073 65.61" stroke="#231F20" stroke-width="2" stroke-linecap="round" stroke-linejoin="round"/></svg>