<svg width="147" height="29" fill="none" xmlns="http://www.w3.org/2000/svg"><mask id="a" style="mask-type:alpha" maskUnits="userSpaceOnUse" x="0" y="1" width="26" height="27"><circle cx="13" cy="14.127" r="13" fill="#fff"/></mask><g mask="url(#a)"><path fill="#FC3F1D" d="M0 1.127h26v26H0z"/><path d="M14.917 8.408h-1.316c-2.255 0-3.383 1.128-3.383 2.82 0 1.879.752 2.819 2.444 3.946l1.315.94-3.759 5.827H7.211l3.571-5.263c-2.067-1.504-3.195-2.82-3.195-5.263 0-3.007 2.067-5.074 6.014-5.074h3.947v15.6h-2.631V8.408Z" fill="#fff"/></g><path d="M30 14.127c0-7.18 5.82-13 13-13s13 5.82 13 13-5.82 13-13 13-13-5.82-13-13Z" fill="#FFD601"/><mask id="b" style="mask-type:alpha" maskUnits="userSpaceOnUse" x="30" y="1" width="26" height="27"><path d="M30 14.127c0-7.18 5.82-13 13-13s13 5.82 13 13-5.82 13-13 13-13-5.82-13-13Z" fill="#FFD601"/></mask><g mask="url(#b)"><path fill-rule="evenodd" clip-rule="evenodd" d="M56 14.246v9.469c-.649.707-1.4 1.292-2.225 1.65-1.321.575-2.824.565-4.378-.423-1.554-.988-2.2-2.345-2.24-3.785-.04-1.431.518-2.933 1.345-4.233.826-1.3 1.95-2.443 3.263-3.013 1.28-.557 2.732-.565 4.235.335Zm-18.127-8.46c1.336-.537 2.838-.486 4.365.544 1.526 1.03 2.135 2.405 2.135 3.845.001 1.432-.598 2.918-1.46 4.195-.862 1.277-2.016 2.388-3.345 2.923-1.336.538-2.838.487-4.364-.543-1.527-1.03-2.135-2.405-2.136-3.846 0-1.431.598-2.917 1.46-4.195.862-1.277 2.017-2.387 3.345-2.922Zm11.21 1.859a1.58 1.58 0 1 1 2.631 1.75l-9.687 14.569a1.58 1.58 0 0 1-2.632-1.75l9.687-14.57Zm-10.41 1.157c-.579.317-1.117.924-1.594 1.63-.477.707-.838 1.433-.915 2.088a1.73 1.73 0 0 0 .113.904c.12.275.33.53.662.756.333.224.649.323.948.33.3.009.593-.075.88-.232.58-.316 1.118-.923 1.595-1.63.477-.706.838-1.432.916-2.088a1.731 1.731 0 0 0-.114-.903c-.119-.275-.329-.531-.662-.756-.333-.224-.649-.323-.948-.331a1.73 1.73 0 0 0-.88.232Zm13.975 8.101c-.57.332-1.092.954-1.549 1.673-.457.719-.799 1.455-.858 2.112-.03.326.011.629.138.9.127.272.344.522.682.738.34.215.658.305.957.305.3 0 .591-.092.874-.257.57-.332 1.092-.954 1.55-1.673.456-.719.798-1.455.857-2.112a1.73 1.73 0 0 0-.138-.9c-.127-.272-.343-.522-.682-.737-.339-.216-.658-.306-.957-.306-.3 0-.591.092-.874.257Z" fill="#000"/></g><path d="M69.168 4.667c2.165 0 3.808.392 4.928 1.176 1.139.784 1.708 2.026 1.708 3.724 0 1.326-.308 2.334-.924 3.024-.616.691-1.456 1.167-2.52 1.428 1.325.243 2.324.738 2.996 1.484.69.728 1.036 1.736 1.036 3.024 0 1.923-.653 3.342-1.96 4.256-1.307.896-3.108 1.344-5.404 1.344H63.4V4.667h5.768Zm.112 16.828c1.139 0 2.035-.233 2.688-.7.653-.485.98-1.306.98-2.464 0-1.082-.299-1.848-.896-2.296-.579-.448-1.512-.672-2.8-.672h-2.464v6.132h2.492Zm-.084-8.652c1.008 0 1.801-.214 2.38-.644.579-.448.868-1.194.868-2.24 0-.989-.27-1.68-.812-2.072-.541-.392-1.344-.588-2.408-.588h-2.436v5.544h2.408Zm12.63-2.8v4.312h1.792c1.754 0 3.117.402 4.088 1.204.97.803 1.456 1.998 1.456 3.584 0 .822-.14 1.55-.42 2.184a4.452 4.452 0 0 1-1.176 1.568c-.486.411-1.074.72-1.764.924-.672.206-1.419.308-2.24.308h-5.068V10.043h3.332Zm11.9 0v14.084h-3.332V10.043h3.332Zm-10.36 11.452c.71 0 1.278-.168 1.708-.504.43-.336.644-.914.644-1.736 0-.82-.206-1.4-.616-1.736-.392-.354-.943-.532-1.652-.532h-1.624v4.508h1.54Zm21.631-11.452v2.632h-5.152v11.452h-3.332V10.043h8.484Zm7.618-.28c.914 0 1.754.16 2.52.476a5.129 5.129 0 0 1 1.96 1.428c.541.616.961 1.382 1.26 2.296.317.896.476 1.932.476 3.108 0 1.176-.159 2.222-.476 3.136-.299.915-.719 1.69-1.26 2.324a5.259 5.259 0 0 1-1.96 1.4c-.766.318-1.606.476-2.52.476-.915 0-1.755-.158-2.52-.476a5.243 5.243 0 0 1-1.96-1.4c-.542-.634-.971-1.4-1.288-2.296-.299-.914-.448-1.96-.448-3.136 0-1.176.149-2.22.448-3.136.317-.914.746-1.68 1.288-2.296a5.114 5.114 0 0 1 1.96-1.428c.765-.317 1.605-.476 2.52-.476Zm0 12.012c.933 0 1.624-.373 2.072-1.12.466-.746.7-1.94.7-3.584 0-1.642-.234-2.828-.7-3.556-.448-.746-1.139-1.12-2.072-1.12-.934 0-1.634.374-2.1 1.12-.448.747-.672 1.942-.672 3.584 0 1.643.224 2.838.672 3.584.466.728 1.166 1.092 2.1 1.092Zm20.829 5.572h-3.08v-3.22h-7.476v3.22h-3.08v-5.852h1.036c.299-.578.532-1.278.7-2.1.187-.82.327-1.689.42-2.604.112-.933.187-1.876.224-2.828.037-.952.056-1.857.056-2.716v-1.204h9.716v11.452h1.484v5.852Zm-4.816-14.672H125.1v.42c0 .616-.019 1.298-.056 2.044a31.885 31.885 0 0 1-.196 2.268 17.572 17.572 0 0 1-.364 2.24 9.855 9.855 0 0 1-.56 1.848h4.704v-8.82Zm13.691 5.04h-.476c-1.438 0-2.464.168-3.08.504-.616.318-.924.878-.924 1.68 0 .598.168 1.083.504 1.456.354.355.886.532 1.596.532.597 0 1.092-.102 1.484-.308.392-.224.69-.494.896-.812v-3.052Zm3.332 2.968c0 1.158.056 2.306.168 3.444h-3.248a6.113 6.113 0 0 1-.168-.532 6.848 6.848 0 0 1-.084-.588h-.14c-.318.336-.728.644-1.232.924-.504.262-1.242.392-2.212.392-1.288 0-2.334-.382-3.136-1.148-.784-.765-1.176-1.866-1.176-3.304 0-1.437.588-2.548 1.764-3.332 1.176-.802 3.042-1.204 5.6-1.204h.532v-.784c0-.765-.187-1.297-.56-1.596-.374-.317-.962-.476-1.764-.476-.43 0-.868.047-1.316.14a9.26 9.26 0 0 0-1.288.308c-.392.131-.766.28-1.12.448a5.532 5.532 0 0 0-.84.504v-2.772c.504-.298 1.176-.588 2.016-.868.84-.28 1.82-.42 2.94-.42 1.773 0 3.089.355 3.948 1.064.877.71 1.316 1.923 1.316 3.64v6.16Z" fill="#000"/></svg>