<svg width="100" height="100" fill="none" xmlns="http://www.w3.org/2000/svg"><rect width="100" height="100" rx="28" fill="#fff"/><rect x="12" y="12" width="76" height="76" rx="16" stroke="#19191A" stroke-width="2" stroke-linecap="round" stroke-linejoin="round" stroke-dasharray="5 8"/><path d="m44.754 56.533.368-1.01c.316-.87.775-1.589 1.376-2.158a4.413 4.413 0 0 1 2.067-1.124c.784-.177 1.607-.108 2.47.205.87.317 1.54.792 2.011 1.427.48.636.763 1.365.85 2.184.087.82-.028 1.665-.345 2.535l-.367 1.01c-.32.877-.776 1.602-1.37 2.174a4.325 4.325 0 0 1-2.055 1.128c-.773.172-1.591.101-2.454-.213-.87-.316-1.55-.79-2.039-1.423a4.413 4.413 0 0 1-.86-2.189c-.087-.82.029-1.668.348-2.546Zm2.001-.415-.367 1.01c-.328.9-.38 1.738-.157 2.513.224.775.755 1.315 1.595 1.62.824.301 1.567.225 2.229-.228.67-.45 1.168-1.126 1.495-2.026l.368-1.01c.327-.9.383-1.736.168-2.508-.209-.77-.733-1.307-1.572-1.613-.825-.3-1.575-.226-2.252.221-.677.447-1.179 1.121-1.507 2.021Zm-8.784-17.485.367-1.01c.32-.877.776-1.602 1.37-2.174a4.296 4.296 0 0 1 2.074-1.108c.784-.177 1.603-.11 2.458.2.87.318 1.544.794 2.023 1.431a4.24 4.24 0 0 1 .854 2.174c.087.82-.03 1.668-.349 2.546l-.367 1.01c-.317.87-.776 1.589-1.377 2.158a4.326 4.326 0 0 1-2.055 1.128c-.777.18-1.596.113-2.458-.2-.87-.317-1.545-.794-2.024-1.431a4.413 4.413 0 0 1-.86-2.19c-.088-.82.027-1.664.344-2.534Zm2.001-.415-.367 1.01c-.328.9-.384 1.736-.168 2.508.223.776.754 1.316 1.594 1.622.832.302 1.579.227 2.24-.226.67-.45 1.168-1.125 1.496-2.025l.367-1.01c.328-.9.384-1.736.168-2.509-.215-.772-.743-1.31-1.583-1.617-.824-.3-1.575-.226-2.252.222-.669.45-1.167 1.125-1.495 2.025Zm-7.437 18.738L56.956 39.53l1.838.67-24.41 17.429-1.849-.673Zm29.487-2.425c.978-2.685 2.243-5.115 3.798-7.29a30.623 30.623 0 0 1 5.391-5.812l1.68.611a22.587 22.587 0 0 0-2.653 2.556 33.191 33.191 0 0 0-2.474 3.198 34.653 34.653 0 0 0-2.161 3.608 31.765 31.765 0 0 0-1.686 3.819 32.922 32.922 0 0 0-1.454 5.407 34.915 34.915 0 0 0-.536 5.497c-.021 1.8.11 3.453.392 4.96l-1.68-.61a30.849 30.849 0 0 1-.39-7.93c.21-2.672.802-5.344 1.773-8.014Z" fill="#000"/></svg>